<svg xmlns="http://www.w3.org/2000/svg" id="manager-working-on-business-staffing" viewBox="0 0 4000 3000">
  <defs>
    <clipPath id="clip-path">
      <circle cx="1024.755" cy="1633.011" r="208.655" style="fill:none"></circle>
    </clipPath>
    <clipPath id="clip-path-2">
      <path d="M1288.1157,1895.8217,1269.2578,2249.73l-658.2825,20.47c23.1367-53.4173,155.9918-457.7355,155.741-443.4165-6.7479-1.3045,240.503-69.0138,413.9427-75.5325,84.0368-3.7407,112.6742,5.9517,114.8376,6.0517" style="fill:#fff;stroke:#010101;stroke-linecap:round;stroke-linejoin:round;stroke-width:6px"></path>
    </clipPath>
    <clipPath id="clip-path-3">
      <path d="M1065.2232,1766.6423c-8.2055-138.3732,5.895-93.1987-104.5116-100.4789v121.4352" style="fill:#fff;stroke:#010101;stroke-linecap:round;stroke-linejoin:round;stroke-width:6px"></path>
    </clipPath>
    <clipPath id="clip-path-4">
      <path d="M1059.2013,1535.0678c-17.1772-.5509-26.0725-34.1532-55.5191-28.0937s-17.1772-21.7589-53.3719,2.2034-23.3119,70.9608-23.3119,70.9608Z" style="fill:#fff;stroke:#010101;stroke-linecap:round;stroke-linejoin:round;stroke-width:6px"></path>
    </clipPath>
    <clipPath id="clip-path-5">
      <path d="M1020.7305,1679.117l24.6678-98.7648,40.489,4.0172c-1.1731,10.7929,17.5563,40.413,25.57,68.0746,33.8242,1.423,60.7625,26.4926,60.7625,57.2165,0,31.6373-28.563,57.285-63.7964,57.285s-63.7963-25.6477-63.7963-57.285a52.0888,52.0888,0,0,1,.3105-5.6416C1027.9572,1695.1934,1020.7305,1679.117,1020.7305,1679.117Z" style="stroke:#010101;stroke-linecap:round;stroke-linejoin:round;stroke-width:6px;fill:#010101"></path>
    </clipPath>
    <clipPath id="clip-path-6">
      <path d="M1085.8873,1584.37c-15.95,32.5006,45.0741,72.0009-19.265,133.0063-56.4392,53.515-143.9182-113.7263-116.9255-140.1674S1085.8873,1584.37,1085.8873,1584.37Z" style="fill:#fff;stroke:#010101;stroke-linecap:round;stroke-linejoin:round;stroke-width:6px"></path>
    </clipPath>
    <clipPath id="clip-path-7">
      <path d="M1012.5525,1568.6806c-5.1895,31.1129,74.5617,27.5475,74.5617,27.5475s30.6735-22.2324-5.5212-29.1644S1012.5525,1568.6806,1012.5525,1568.6806Z" style="stroke:#010101;stroke-linecap:round;stroke-linejoin:round;stroke-width:6px;fill:#010101"></path>
    </clipPath>
    <clipPath id="clip-path-8">
      <path d="M1099.2472,1577.7592s-18.9786-49.0263-43.4687-46.8228-111.1256,4.916-134.3381,36.1273c-13.2872,17.8659,4.1707,64.74,12.622,67.6219C981.27,1556.0406,1099.2472,1577.7592,1099.2472,1577.7592Z" style="fill:#fff;stroke:#010101;stroke-linecap:round;stroke-linejoin:round;stroke-width:6px"></path>
    </clipPath>
    <clipPath id="clip-path-9">
      <path d="M1044.2941,1637.4516c3.4318,22.0878-20.72,25.1264-25.8059,3.8485C1014.8664,1618.121,1039.4987,1616.9837,1044.2941,1637.4516Z" style="fill:#fff;stroke:#010101;stroke-linecap:round;stroke-linejoin:round;stroke-width:6px"></path>
    </clipPath>
    <clipPath id="clip-path-10">
      <path d="M1094.7019,1633.0674c3.0793,20.0391-16.7127,22.5238-21.1193,3.2853C1070.3508,1615.4194,1090.52,1614.4937,1094.7019,1633.0674Z" style="fill:#fff;stroke:#010101;stroke-linecap:round;stroke-linejoin:round;stroke-width:6px"></path>
    </clipPath>
    <clipPath id="clip-path-11">
      <path d="M1069.474,1685.3217a1.0889,1.0889,0,0,1-.2186,1.7332c-8.2245,5.8791-17.8971,2.9285-19.5847-3.0038C1045.9252,1674.181,1061.68,1677.2481,1069.474,1685.3217Z" style="fill:#fff"></path>
    </clipPath>
    <clipPath id="clip-path-12">
      <path d="M1000.1574,2305.1062h489.306l118.17-259.8291c5.0235-11.0455-2.3209-20-16.404-20H1152.9227c-14.0832,0-29.5722,8.9542-34.5957,20Z" style="stroke:#010101;stroke-linecap:round;stroke-linejoin:round;stroke-width:6px;fill:#010101"></path>
    </clipPath>
    <clipPath id="clip-path-13">
      <path d="M774.9106,1825.0012c-73.7073,0-257.7885,423.2438-257.7885,423.2438L810.11,2280.33s59.9259-274.8613,61.1967-289.5134" style="fill:#fff;stroke:#010101;stroke-linecap:round;stroke-linejoin:round;stroke-width:6px"></path>
    </clipPath>
    <clipPath id="clip-path-14">
      <path d="M870.926,2291.8368c42.6288-1.5218,104.8238,22.4647,146.2719-27.1409l6.5722,16.8181c36.7148-16.4908,1.979-83.497-26.1154-105.57-22.1723-45.23-111.981,67.3652-121.2608,59.4171-62.4458-7.0553-270.8279-54.3153-311.0687-47.0359-66.8184,8.8883-84.9443,113.2969-9.8645,118.5813C556.1454,2306.5311,868.8238,2292.182,870.926,2291.8368Z" style="fill:#fff;stroke:#010101;stroke-linecap:round;stroke-linejoin:round;stroke-width:6px"></path>
    </clipPath>
    <clipPath id="clip-path-15">
      <circle cx="1319.148" cy="679.578" r="208.655" style="fill:none"></circle>
    </clipPath>
    <clipPath id="clip-path-16">
      <path d="M1355.7217,708.658c-74.3781,109.5126-65.3146,56.1923-151.259,33.1157C1318.5608,643.107,1278.7682,654.5032,1355.7217,708.658Z" style="fill:#fff;stroke:#010101;stroke-linecap:round;stroke-linejoin:round;stroke-width:6px"></path>
    </clipPath>
    <clipPath id="clip-path-17">
      <path d="M1664.68,1099.4186c35.4588-4.7962,156.0111-25.4022,164.5921-22.3164s120.3317,34.8741,135.26,35.3364c0,0,25.2627,37.24-99.1834,10.6988,44.8994,60.0294-57.4734,76.1092-86.6351,42.4385-36.2913,13.0274-226.7878,11.4059-226.7878,11.4059Z" style="fill:#fff;stroke:#010101;stroke-linecap:round;stroke-linejoin:round;stroke-width:6px"></path>
    </clipPath>
    <clipPath id="clip-path-18">
      <path d="M1582.5049,2018.4492c72.2427,223.0672,40.4661,202.529,167.31,238.3371C1708.11,1956.3474,1761.7125,2026.3387,1582.5049,2018.4492Z" style="fill:#fff;stroke:#010101;stroke-linecap:round;stroke-linejoin:round;stroke-width:6px"></path>
    </clipPath>
    <clipPath id="clip-path-19">
      <path d="M1496.2785,2089.0021c0,68.9051,276.7609-44.3824,272.6278-48.6472-27.6163-125.192-79.97-415.0713-96.553-458.343-20.5554-92.08-502.1139-290.8479-569.2933-342.6241l-25.9859,130.7491,385.3,240.8865s51.2846,213.6155,15.8526,223.4895,47.9107,98.6064,8.6872,122.4717,6.7128,94.6378,6.7128,94.6378Z" style="stroke:#010101;stroke-linecap:round;stroke-linejoin:round;stroke-width:6px;fill:#010101"></path>
    </clipPath>
    <clipPath id="clip-path-20">
      <polygon points="1197.836 1778.59 1038.974 1927.622 1135.24 1979.745 1353.816 1812.907 1197.836 1778.59" style="fill:#fff;stroke:#010101;stroke-linecap:round;stroke-linejoin:round;stroke-width:6px"></polygon>
    </clipPath>
    <clipPath id="clip-path-21">
      <path d="M1065.6377,1731.7849c-51.1534,1.0879,182.8275,227.5082,224.1632,152.3193,156.9868-173.89,488.6041-362.8287,298.7534-465.7069.574-.8933-425.5464-182.3963-412.163-179.9811,5.7149-15.5123,63.6812-122.54,51.0691-109.6135-20.9374-14.6277-212.539-148.4349-213.7665-149.29l-70.0967,128.1384c-537.0758,515.509,378.9974,443.7052,378.9974,443.7052s-28.2223,47.4811-79.3962,55.75-65.3754,73.2656-109.9631,77.2134S1065.6377,1731.7849,1065.6377,1731.7849Z" style="stroke:#010101;stroke-linecap:round;stroke-linejoin:round;stroke-width:6px;fill:#010101"></path>
    </clipPath>
    <clipPath id="clip-path-22">
      <path d="M1223.6749,711.6859c183.8777,144.2409,105.5514,340.8994,22.9151,537.53-1.5466,23.144-397.7584-92.9976-403.0575-130.0851C812.5839,1026.8863,1094.1325,728.7477,1223.6749,711.6859Z" style="stroke:#010101;stroke-linecap:round;stroke-linejoin:round;stroke-width:6px;fill:#010101"></path>
    </clipPath>
    <clipPath id="clip-path-23">
      <path d="M1233.2684,804.986c72.8582,32.756,135.5465,215.9465,221.0505,243.721,76.656,24.9,251.33,40.3028,253.212,40.4595,2.05-4.5291,56.4326,74.0489-10.2847,302.6076-483.8117-55.4947-499.25-307.1188-584.9314-453.9257" style="stroke:#010101;stroke-linecap:round;stroke-linejoin:round;stroke-width:6px;fill:#010101"></path>
    </clipPath>
    <clipPath id="clip-path-24">
      <path d="M1390.6621,589.3841c32.4379,6.9588,17.534,54.278,28.0544,73.7624s-7.0136,102.989-85.9167,48.0152-59.915-110.5034-59.915-110.5034Z" style="fill:#fff;stroke:#010101;stroke-linecap:round;stroke-linejoin:round;stroke-width:6px"></path>
    </clipPath>
    <clipPath id="clip-path-25">
      <path d="M1312.5018,637.0766c-7.912,8.1662-47.9993,13.57-47.9993,13.57v-5.3678c-24.986-62.48,5.9177-87.0092,50.6294-84.4s64.7608-19.31,89.2563-5.7409,25.8107,40.1866-11.6683,41.23-94.6836-4.1752-94.6836-4.1752" style="stroke:#010101;stroke-linecap:round;stroke-linejoin:round;stroke-width:6px;fill:#010101"></path>
    </clipPath>
    <clipPath id="clip-path-26">
      <path d="M1405.5145,638.48c-.5107,20.9039-27.1531,20.0669-28.4969.596C1377.5282,618.172,1404.1705,619.0091,1405.5145,638.48Z" style="fill:#fff"></path>
    </clipPath>
    <clipPath id="clip-path-27">
      <path d="M1943.5505,2370.6087H694.7446c-117.93,0-204.6-94.582-193.8423-208.5134l84.95-899.681c8.43-89.2772,97.06-160.1582,198.1345-160.1582h1070.322c101.0748,0,189.7048,70.881,198.1345,160.1582l84.95,899.681C2148.1505,2276.0267,2061.48,2370.6087,1943.5505,2370.6087Z" style="fill:#fff;stroke:#010101;stroke-linecap:round;stroke-linejoin:round;stroke-width:6px"></path>
    </clipPath>
    <clipPath id="clip-path-28">
      <rect width="1404.847" height="1902.611" x="2095.153" y="646.08" rx="115.74" style="fill:#fff;stroke:#010101;stroke-linecap:round;stroke-linejoin:round;stroke-width:6px"></rect>
    </clipPath>
    <clipPath id="clip-path-29">
      <path d="M1651.898,2391.7235c27.8677-18.7025,974.6181-24.3749,1024.9514-28.034-.0207.5,6.4693-212.6856,13.55-445.28-11.1132-636.851,152.8383-580.2878-283.6663-612.7206-139.211-8.3457-453.3335,68.9459-421.7915,115.7493-83.2154,365.7088-217.9519,803.2213-170.4513,1023.6315" style="stroke:#010101;stroke-linecap:round;stroke-linejoin:round;stroke-width:6px;fill:#010101"></path>
    </clipPath>
    <clipPath id="clip-path-30">
      <path d="M2372.5411,1336.132l-25.0138-231.7013c-202.5433,111.0239-140.54,106.9049-142.941,243.1648" style="fill:#fff;stroke:#010101;stroke-linecap:round;stroke-linejoin:round;stroke-width:6px"></path>
    </clipPath>
    <clipPath id="clip-path-31">
      <path d="M2652.5131,2142.3445c-1.0815.32-563.675,197.8587-613.9443,215.4569-184.195-90.9574-302.4969,117.8044-418.8406,186.4369,80.5308,5.46,250.3931,4.857,316.9848-52.7686l-90.3233,78.5546c-25.7142,91.6679,263.8988-115.2111,274.0037-83.8457C3148.3715,2438.6954,2842.0172,2086.6026,2652.5131,2142.3445Z" style="fill:#fff;stroke:#010101;stroke-linecap:round;stroke-linejoin:round;stroke-width:6px"></path>
    </clipPath>
    <clipPath id="clip-path-32">
      <path d="M2665.9892,1729.1117c-50.5751,297.8381-240.7613,508.81-502.3746,567.27,0,0-76.0486,258.3489,204.2152,282.1955,171.3211,14.577,590.7638-101.1136,625.2177-481.1662,36.4264-401.8111,3.1839-696.2058-395.1719-777.2538" style="stroke:#010101;stroke-linecap:round;stroke-linejoin:round;stroke-width:6px;fill:#010101"></path>
    </clipPath>
    <clipPath id="clip-path-33">
      <path d="M2174.5981,872.9967c32.4014-1.141,49.1807-70.7431,104.726-58.1919s32.4014-45.07,100.6758,4.564,43.9734,146.9846,43.9734,146.9846Z" style="fill:#fff;stroke:#010101;stroke-linecap:round;stroke-linejoin:round;stroke-width:6px"></path>
    </clipPath>
    <clipPath id="clip-path-34">
      <path d="M2247.1658,1171.373l-46.531-204.5764-76.3746,8.321c2.2128,22.3559-33.1166,83.7095-48.2325,141.0064-63.8029,2.9474-114.6167,54.8754-114.6167,118.5152,0,65.5319,53.8786,118.6574,120.34,118.6574s120.34-53.1255,120.34-118.6574c0-3.9444-.2046-7.8408-.5858-11.6855C2233.5341,1204.6729,2247.1658,1171.373,2247.1658,1171.373Z" style="stroke:#010101;stroke-linecap:round;stroke-linejoin:round;stroke-width:6px;fill:#010101"></path>
    </clipPath>
    <clipPath id="clip-path-35">
      <path d="M2124.26,975.1178c30.087,67.32-85.0236,149.1391,36.34,275.5026,106.4617,110.8482,271.4738-235.567,220.5573-290.3358S2124.26,975.1178,2124.26,975.1178Z" style="fill:#fff;stroke:#010101;stroke-linecap:round;stroke-linejoin:round;stroke-width:6px"></path>
    </clipPath>
    <clipPath id="clip-path-36">
      <path d="M2262.5921,942.6207c9.7889,64.4456-140.6463,57.06-140.6463,57.06s-57.86-46.051,10.4148-60.41S2262.5921,942.6207,2262.5921,942.6207Z" style="stroke:#010101;stroke-linecap:round;stroke-linejoin:round;stroke-width:6px;fill:#010101"></path>
    </clipPath>
    <clipPath id="clip-path-37">
      <path d="M2099.0592,961.4256s35.8-101.5506,81.9954-96.9865,209.6168,10.1827,253.4028,74.8324c25.0638,37.0064-7.8673,134.0994-23.8091,140.0686C2321.6005,916.4386,2099.0592,961.4256,2099.0592,961.4256Z" style="fill:#fff;stroke:#010101;stroke-linecap:round;stroke-linejoin:round;stroke-width:6px"></path>
    </clipPath>
    <clipPath id="clip-path-38">
      <path d="M2207.9771,1085.4991c-6.0206,45.5355,36.3514,51.8,45.2742,7.934C2259.6055,1045.6477,2216.39,1043.3031,2207.9771,1085.4991Z" style="fill:#fff"></path>
    </clipPath>
    <clipPath id="clip-path-39">
      <path d="M2119.5412,1076.4607c-5.4022,41.3122,29.321,46.4344,37.052,6.7731C2162.2631,1040.0783,2126.879,1038.17,2119.5412,1076.4607Z" style="fill:#fff"></path>
    </clipPath>
    <clipPath id="clip-path-40">
      <path d="M2155.2207,1184.225a2.3851,2.3851,0,0,0,.4123,3.59c15.5138,12.1777,33.76,6.066,36.9427-6.2219C2199.6409,1161.1489,2169.9232,1167.5019,2155.2207,1184.225Z" style="fill:#fff"></path>
    </clipPath>
    <clipPath id="clip-path-41">
      <path d="M878.6967,1873.08l157.7353,639.2429a51.7227,51.7227,0,0,0,46.59,39.2044l959.59,67.45a24.4741,24.4741,0,0,0,25.887-28.2543l-101.8328-640.92a36.1237,36.1237,0,0,0-33.4322-30.3855L894.0079,1854.7351A14.8221,14.8221,0,0,0,878.6967,1873.08Z" style="fill:#fff;stroke:#010101;stroke-linecap:round;stroke-linejoin:round;stroke-width:6px"></path>
    </clipPath>
    <clipPath id="clip-path-42">
      <circle cx="3062.214" cy="1267.04" r="208.655" style="fill:none"></circle>
    </clipPath>
    <clipPath id="clip-path-43">
      <path d="M3304.3713,1671.7573c-.2449,2.4821-94.7991,81.789-88.144,85.8692,13.09,29.6834,11.9582,71.3083,43.1763,55.77,13.5455,20.5007,142.8813,16.4975,20.4163-10.5807-.0019-.52-.0019-5.6094.3656-19.0656,1.4571-17.694-1.0263-8.3515,15.3207-22.401C3362.0285,1725.867,3310.7723,1705.9617,3304.3713,1671.7573Z" style="fill:#fff;stroke:#010101;stroke-linecap:round;stroke-linejoin:round;stroke-width:6px"></path>
    </clipPath>
    <clipPath id="clip-path-44">
      <path d="M3496.5977,2894.6691c3.4415,4.8032,64.6866,176.1162,64.6866,176.1162l-111.4424-10.4069-88.5854-242.56Z" style="fill:#fff;stroke:#010101;stroke-linecap:round;stroke-linejoin:round;stroke-width:6px"></path>
    </clipPath>
    <clipPath id="clip-path-45">
      <path d="M3353.1868,2923.68c131.34,17.1473,247.4245,31.5162,211.13-52.8989-112.5-404.2482-254.0569-1005.2239-383.0468-1170.1865.4287-.1929-73.7353,16.7293-103.36,23.35-16.575,3.74-6.9571-.8321-9.338,15.2426,1.4006,112.3238-4.2874,228.723,1.0693,230.4369C3094.343,2052.74,3343.5738,2924.6342,3353.1868,2923.68Z" style="stroke:#010101;stroke-linecap:round;stroke-linejoin:round;stroke-width:6px;fill:#010101"></path>
    </clipPath>
    <clipPath id="clip-path-46">
      <path d="M3245.524,1720.0086c169.7269,221.0547,215.42,81.6919,256.2182-48.2513,34.9724-111.3889-195.0449-255.4035-243.6977-290.9861-80.5657-58.9222-150.2923,80.1008-97.8444,148.5782,3.4817,9.3552,173.4908,98.5754,177.9621,104.482Z" style="stroke:#010101;stroke-linecap:round;stroke-linejoin:round;stroke-width:6px;fill:#010101"></path>
    </clipPath>
    <clipPath id="clip-path-47">
      <path d="M3092.86,2894.8069c27.2724,225.33-.5086,172.0665,128.8685,166.0065l-31.6083-242.995Z" style="fill:#fff;stroke:#010101;stroke-linecap:round;stroke-linejoin:round;stroke-width:6px"></path>
    </clipPath>
    <clipPath id="clip-path-48">
      <path d="M3083.8659,1709.3726l-127.0382-8.7739L2909.097,1778.57c-45.894,74.9709-62.1178,165.3873-45.2956,252.436l134.623,905.7762c-14.6872,30.2816,207.7549,27.1694,248.74-20.9236s-142.2356-994.6617-142.2356-994.6617" style="stroke:#010101;stroke-linecap:round;stroke-linejoin:round;stroke-width:6px;fill:#010101"></path>
    </clipPath>
    <clipPath id="clip-path-49">
      <path d="M3232.9766,1369.1271s-209.0626-53.41-353.5835-8.4359c0,0,10.11,255.9863,43.652,359.8958,146.2621,36.6452,280.5087,3.8978,280.5087,3.8978s70.372-144.3889,59.9149-264.6165" style="stroke:#010101;stroke-linecap:round;stroke-linejoin:round;stroke-width:6px;fill:#010101"></path>
    </clipPath>
    <clipPath id="clip-path-50">
      <path d="M2941.0377,1669.5057c15.8934-2.4417,63.6471-35.7651,84.8218-50.9751-37.2144,100.196,163.9659-48.2012,82.3349,38.2048,46.5815,60.8186-148.1344,82.475-153.227,87.5877Z" style="fill:#fff;stroke:#010101;stroke-linecap:round;stroke-linejoin:round;stroke-width:6px"></path>
    </clipPath>
    <clipPath id="clip-path-51">
      <path d="M3162.7136,1187.363c-2.66-80.5608-123.7067-87.47-141.7963-13.2136-31.2616,6.9834-77.4824,19.064-80.5766,84.5931-5.3441,113.1748,168.8708,85.4022,182.66-2.2483C3129.2928,1233.49,3165.7919,1221.9214,3162.7136,1187.363Z" style="stroke:#010101;stroke-linecap:round;stroke-linejoin:round;stroke-width:6px;fill:#010101"></path>
    </clipPath>
    <clipPath id="clip-path-52">
      <path d="M3113.9549,1368.0585l4.95-95.6806c-117.7714-10.0442-68.5368,21.5405-86.3528,84.9258" style="fill:#fff;stroke:#010101;stroke-linecap:round;stroke-linejoin:round;stroke-width:6px"></path>
    </clipPath>
    <clipPath id="clip-path-53">
      <path d="M3061.3387,1307.07c87.3858,49.0848,104.1939-44.682,79.8619-92.481-22.4287,9.5645-44.0994-15.6606-44.0994-15.6606-8.8929,19.01-42.9581,15.32-42.9581,15.32,7.8421,7.6738-23.04,39.637-34.6624,62.4891" style="fill:#fff;stroke:#010101;stroke-linecap:round;stroke-linejoin:round;stroke-width:6px"></path>
    </clipPath>
    <clipPath id="clip-path-54">
      <path d="M3102.0281,1245.6143c4.0273,16.6106-12.87,20.4369-18.0108,4.5468C3079.7765,1232.7311,3097.1513,1230.323,3102.0281,1245.6143Z" style="fill:#fff"></path>
    </clipPath>
    <clipPath id="clip-path-55">
      <path d="M3137.4357,1239.12c3.63,15.0722-10.2177,18.2036-14.73,3.8245C3118.9034,1227.2,3133.13,1225.2329,3137.4357,1239.12Z" style="fill:#fff"></path>
    </clipPath>
    <linearGradient id="未命名的渐变_322" x1="1359.32" x2="1174.197" y1="1840.153" y2="2071.012" gradientUnits="userSpaceOnUse">
      <stop offset=".001" stop-color="#08b3fa"></stop>
      <stop offset=".961" stop-color="#0276fc"></stop>
    </linearGradient>
  </defs>
  <g style="clip-path:url(#clip-path)">
    <circle cx="1024.755" cy="1633.011" r="208.655" style="fill:#010101"></circle>
    <path d="M1208.4709,2189.53h233.6176C1344.1626,1613.3966,1211.75,1611,1208.4709,2189.53Z" style="fill:#fff;stroke:#010101;stroke-linecap:round;stroke-linejoin:round;stroke-width:6px"></path>
    <path d="M1288.1157,1895.8217,1269.2578,2249.73l-658.2825,20.47c23.1367-53.4173,155.9918-457.7355,155.741-443.4165-6.7479-1.3045,240.503-69.0138,413.9427-75.5325,84.0368-3.7407,112.6742,5.9517,114.8376,6.0517" style="fill:#fff"></path>
    <g style="clip-path:url(#clip-path-2)">
      <path d="M1146.9114,1774.7687c46.5371,134.2862-261.5813,78.19-299.1721,4.1584C764.1568,1632.1938,1122.5236,1688.1149,1146.9114,1774.7687Z" style="fill:#fff;stroke:#010101;stroke-linecap:round;stroke-linejoin:round;stroke-width:6px"></path>
      <path d="M1132.0667,1763.38c39.6795,112.2885-227.1215,75.7414-263.9512,10.0069C790.2067,1647.5654,1109.9625,1686.0346,1132.0667,1763.38Z" style="fill:#fff;stroke:#010101;stroke-linecap:round;stroke-linejoin:round;stroke-width:6px"></path>
      <path d="M854.8809,2036.34c46.5248-55.9732-27.6763,303.7059,176.3147,215.18,93.6057-40.6219-227.6495,122.4119-484.4438-37.55l271.1321-203.6458" style="fill:#fff"></path>
      <path d="M1226.2372,1849.4406c8.2816,53.4692-2.0328,246.818-86.3143,345.9455,129.4013-10.6,141.8456-146.8076,176.4941-203.9329" style="fill:url(#未命名的渐变_322)"></path>
      <polygon points="1072.865 1944.634 986.432 2108.117 1189.284 2092.762 1072.865 1944.634" style="fill:#fff;stroke:#010101;stroke-linecap:round;stroke-linejoin:round;stroke-width:6px"></polygon>
      <path d="M1054.7535,1996.5978c-2.2787,85.345-145.8832,87.3636-150.5848-.0064C906.4475,1911.2528,1050.0519,1909.2341,1054.7535,1996.5978Z" style="fill:#fff;stroke:#010101;stroke-linecap:round;stroke-linejoin:round;stroke-width:6px"></path>
      <rect width="109.523" height="97.135" x="1106.846" y="1931.367" style="stroke:#010101;stroke-linecap:round;stroke-linejoin:round;stroke-width:6px;fill:#010101"></rect>
    </g>
    <path d="M1288.1157,1895.8217,1269.2578,2249.73l-658.2825,20.47c23.1367-53.4173,155.9918-457.7355,155.741-443.4165-6.7479-1.3045,240.503-69.0138,413.9427-75.5325,84.0368-3.7407,112.6742,5.9517,114.8376,6.0517" style="fill:none;stroke:#010101;stroke-linecap:round;stroke-linejoin:round;stroke-width:6px"></path>
    <path d="M1065.2232,1766.6423c-8.2055-138.3732,5.895-93.1987-104.5116-100.4789v121.4352" style="fill:#fff"></path>
    <g style="clip-path:url(#clip-path-3)">
      <path d="M1096.9054,1770.981c-73.4111-9.9021-64.2229-55.4321-93.1128-80.6655,5.66-11.3625,93.4964,4.181,87.0848,5.0252,8.1328,24.9537,45.904,65.302,15.38,77.5544" style="fill:#fff"></path>
    </g>
    <path d="M1065.2232,1766.6423c-8.2055-138.3732,5.895-93.1987-104.5116-100.4789v121.4352" style="fill:none;stroke:#010101;stroke-linecap:round;stroke-linejoin:round;stroke-width:6px"></path>
    <path d="M1059.2013,1535.0678c-17.1772-.5509-26.0725-34.1532-55.5191-28.0937s-17.1772-21.7589-53.3719,2.2034-23.3119,70.9608-23.3119,70.9608Z" style="fill:#fff"></path>
    <g style="clip-path:url(#clip-path-4)">
      <path d="M909.58,1539.7036c57.2573,9.0021,117.9379-19.2849,102.73,0s-94.5134,40.4347-94.5134,40.4347l-10.67-15.7857" style="fill:#fff"></path>
    </g>
    <path d="M1059.2013,1535.0678c-17.1772-.5509-26.0725-34.1532-55.5191-28.0937s-17.1772-21.7589-53.3719,2.2034-23.3119,70.9608-23.3119,70.9608Z" style="fill:none;stroke:#010101;stroke-linecap:round;stroke-linejoin:round;stroke-width:6px"></path>
    <path d="M1020.7305,1679.117l24.6678-98.7648,40.489,4.0172c-1.1731,10.7929,17.5563,40.413,25.57,68.0746,33.8242,1.423,60.7625,26.4926,60.7625,57.2165,0,31.6373-28.563,57.285-63.7964,57.285s-63.7963-25.6477-63.7963-57.285a52.0888,52.0888,0,0,1,.3105-5.6416C1027.9572,1695.1934,1020.7305,1679.117,1020.7305,1679.117Z" style="fill:#010101"></path>
    <g style="clip-path:url(#clip-path-5)">
      <path d="M1096.1675,1649.5184c6.5185,47.191-3.8229,84.7488-51.5409,88.877s-13.25-34.88-13.25-34.88" style="fill:#010101"></path>
    </g>
    <path d="M1020.7305,1679.117l24.6678-98.7648,40.489,4.0172c-1.1731,10.7929,17.5563,40.413,25.57,68.0746,33.8242,1.423,60.7625,26.4926,60.7625,57.2165,0,31.6373-28.563,57.285-63.7964,57.285s-63.7963-25.6477-63.7963-57.285a52.0888,52.0888,0,0,1,.3105-5.6416C1027.9572,1695.1934,1020.7305,1679.117,1020.7305,1679.117Z" style="fill:none;stroke:#010101;stroke-linecap:round;stroke-linejoin:round;stroke-width:6px"></path>
    <path d="M1085.8873,1584.37c-15.95,32.5006,45.0741,72.0009-19.265,133.0063-56.4392,53.515-143.9182-113.7263-116.9255-140.1674S1085.8873,1584.37,1085.8873,1584.37Z" style="fill:#fff"></path>
    <g style="clip-path:url(#clip-path-6)">
      <path d="M1126.8906,1669.9426c-1.2583,6.141-11.5191,10.24-23.2786,9.1617-12.168-1.1156-21.3992-7.3242-20.2224-13.8756,1.1857-6.6006,12.4078-10.7024,24.6612-9.1662C1119.8875,1657.5465,1128.1578,1663.7584,1126.8906,1669.9426Z" style="fill:#fff;opacity:.3"></path>
      <path d="M1099.2472 1599.3c-27.116 9.9962-71.4084-7.2312-71.4084-7.2312s-16.0867 22.37-44.4011 9.377h0l-3.918-27.6678h106.5862l8.92 6.36M992.4015 1671.6735c18.8572 8.6593 24.986 24.8285 19.9083 56.1967s-22.5857-17.1237-22.5857-17.1237" style="fill:#fff"></path>
    </g>
    <path d="M1085.8873,1584.37c-15.95,32.5006,45.0741,72.0009-19.265,133.0063-56.4392,53.515-143.9182-113.7263-116.9255-140.1674S1085.8873,1584.37,1085.8873,1584.37Z" style="fill:none;stroke:#010101;stroke-linecap:round;stroke-linejoin:round;stroke-width:6px"></path>
    <path d="M1024.54,1582.1661c3.6808,30.2971-41.1025,19.28-41.1025,19.28-26.9927,53.984,25.3674,84.7131,20.6588,101.2983s-51.2769,28.7974-76.4292,19.142c8.5886-134.1491-3.1228-173.8735,48.4088-173.8735S1024.54,1582.1661,1024.54,1582.1661Z" style="stroke:#010101;stroke-linecap:round;stroke-linejoin:round;stroke-width:6px;fill:#010101"></path>
    <path d="M1012.5525,1568.6806c-5.1895,31.1129,74.5617,27.5475,74.5617,27.5475s30.6735-22.2324-5.5212-29.1644S1012.5525,1568.6806,1012.5525,1568.6806Z" style="fill:#010101"></path>
    <g style="clip-path:url(#clip-path-7)">
      <path d="M1134.8987,1604.4592c-27.9493-20.0467-101.8534-22.9968-114.1678-25.5627s45.6319-12.4581,45.6319-12.4581l48.6444,5.1188" style="fill:#010101"></path>
    </g>
    <path d="M1012.5525,1568.6806c-5.1895,31.1129,74.5617,27.5475,74.5617,27.5475s30.6735-22.2324-5.5212-29.1644S1012.5525,1568.6806,1012.5525,1568.6806Z" style="fill:none;stroke:#010101;stroke-linecap:round;stroke-linejoin:round;stroke-width:6px"></path>
    <path d="M1099.2472,1577.7592s-18.9786-49.0263-43.4687-46.8228-111.1256,4.916-134.3381,36.1273c-13.2872,17.8659,4.1707,64.74,12.622,67.6219C981.27,1556.0406,1099.2472,1577.7592,1099.2472,1577.7592Z" style="fill:#fff"></path>
    <g style="clip-path:url(#clip-path-8)">
      <path d="M1117.8449,1560.9011c-91.4273-18.6-125.5349-2.7059-118.4291-1.72s82.5314-8.7273,109.0071,6.1253-16.6324-28.5348-16.6324-28.5348" style="fill:#fff"></path>
    </g>
    <path d="M1099.2472,1577.7592s-18.9786-49.0263-43.4687-46.8228-111.1256,4.916-134.3381,36.1273c-13.2872,17.8659,4.1707,64.74,12.622,67.6219C981.27,1556.0406,1099.2472,1577.7592,1099.2472,1577.7592Z" style="fill:none;stroke:#010101;stroke-linecap:round;stroke-linejoin:round;stroke-width:6px"></path>
    <path d="M1044.2941,1637.4516c3.4318,22.0878-20.72,25.1264-25.8059,3.8485C1014.8664,1618.121,1039.4987,1616.9837,1044.2941,1637.4516Z" style="fill:#fff"></path>
    <g style="clip-path:url(#clip-path-9)">
      <path d="M1043.2036,1637.7713c.4738,10.7843-11.7717,12.3853-13.3138.3213C1029.4141,1627.0615,1041.709,1625.9686,1043.2036,1637.7713Z" style="fill:#010101"></path>
    </g>
    <path d="M1044.2941,1637.4516c3.4318,22.0878-20.72,25.1264-25.8059,3.8485C1014.8664,1618.121,1039.4987,1616.9837,1044.2941,1637.4516Z" style="fill:none;stroke:#010101;stroke-linecap:round;stroke-linejoin:round;stroke-width:6px"></path>
    <path d="M1094.7019,1633.0674c3.0793,20.0391-16.7127,22.5238-21.1193,3.2853C1070.3508,1615.4194,1090.52,1614.4937,1094.7019,1633.0674Z" style="fill:#fff"></path>
    <g style="clip-path:url(#clip-path-10)">
      <path d="M1094.3389,1635.9918c.46,9.7755-9.5766,11.167-10.9191.2515C1082.9571,1626.2657,1093.0333,1625.2909,1094.3389,1635.9918Z" style="fill:#010101"></path>
    </g>
    <path d="M1094.7019,1633.0674c3.0793,20.0391-16.7127,22.5238-21.1193,3.2853C1070.3508,1615.4194,1090.52,1614.4937,1094.7019,1633.0674Z" style="fill:none;stroke:#010101;stroke-linecap:round;stroke-linejoin:round;stroke-width:6px"></path>
    <path d="M1090.1288 1600.4939c-24.7557-1.5333-29.4845 9.1894-13.3473 10.8858C1091.9761 1612.977 1105.0838 1601.42 1090.1288 1600.4939ZM1034.1435 1608.3047c-30.7243-5.2741-38.7877 5.7987-18.7475 9.9907C1034.1656 1622.2215 1052.57 1611.4678 1034.1435 1608.3047Z" style="fill:#010101"></path>
    <path d="M1072.113,1660.8179c-4.6471-5.6827-4.4057-19.2472-9.364-17.4423-5.4148-.7685-.0643,12.362-3.13,19.1686-3.1125,6.9095,3.1186,9.7358,7.6495,9.0219.0105-.0017.0156-.0143.026-.0163s.0192.0091.03.0075C1071.7761,1670.8558,1076.6925,1666.418,1072.113,1660.8179Z" style="fill:#fff"></path>
    <path d="M1048.9759,1672.0521c-1.2583,6.141-11.5191,10.24-23.2787,9.1617-12.168-1.1156-21.3991-7.3242-20.2223-13.8756,1.1856-6.6007,12.4078-10.7024,24.6612-9.1662C1041.9728,1659.656,1050.2431,1665.8679,1048.9759,1672.0521Z" style="fill:#fff;opacity:.3"></path>
    <ellipse cx="944.653" cy="1709.66" rx="63.796" ry="57.285" style="fill:#010101"></ellipse>
    <ellipse cx="944.653" cy="1709.66" rx="63.796" ry="57.285" style="fill:none;stroke:#010101;stroke-linecap:round;stroke-linejoin:round;stroke-width:6px"></ellipse>
    <path d="M980.25,1629.4123c-38.8447-14.293-55.4791,51.6834,9.4743,35.4749" style="fill:#fff;stroke:#010101;stroke-linecap:round;stroke-linejoin:round;stroke-width:6px"></path>
    <path d="M1069.474,1685.3217a1.0889,1.0889,0,0,1-.2186,1.7332c-8.2245,5.8791-17.8971,2.9285-19.5847-3.0038C1045.9252,1674.181,1061.68,1677.2481,1069.474,1685.3217Z" style="fill:#fff"></path>
    <g style="clip-path:url(#clip-path-11)">
      <path d="M1045.8871,1682.8249c-8.7021,4.7314,6.8938,17.8468,15.5025,8.3362C1064.7993,1685.6616,1055.1069,1678.8275,1045.8871,1682.8249Z" style="fill:#fff"></path>
      <path d="M1068.845,1683.1859c-.6585,3.646-19.1236-1.0807-12.0135-5.7663l11.0378,4.8088" style="fill:#fff;stroke:#010101;stroke-linecap:round;stroke-linejoin:round;stroke-width:6px"></path>
    </g>
    <path d="M971.0986,1644.4032c-11.8429-9.4436-13.264,11.612,0,8.2091" style="fill:none;stroke:#010101;stroke-linecap:round;stroke-linejoin:round;stroke-width:6px"></path>
    <path d="M964.6166 1709.4073c-15.5846 0-28.26-11.5406-28.26-25.7212 0-10.0086 6.45-19.1828 16.4367-23.3725a3.39 3.39 0 1 1 2.6224 6.2515c-7.4567 3.13-12.2778 9.85-12.2778 17.121 0 10.4456 9.6333 18.94 21.4785 18.94s21.4785-8.4943 21.4785-18.94-9.6333-18.9444-21.4785-18.9444a3.3907 3.3907 0 1 1 0-6.7813c15.5846 0 28.26 11.5406 28.26 25.7257C992.8764 1697.8667 980.2012 1709.4073 964.6166 1709.4073ZM1254.7025 1751.3415c-3.0166-2.5385-30.1751-89.8215-36.5439-89.78-33.64-7.166-138.91-35.9224-95.0732 16.2445-27.9187 56.8317 76.2459 67.2335 59.2994 82.3629 115.5651 543.6323 21.9271 422.7349 259.704 414.2328Z" style="fill:#fff;stroke:#010101;stroke-linecap:round;stroke-linejoin:round;stroke-width:6px"></path>
    <line x1="755.74" x2="1485.118" y1="2280.33" y2="2280.33" style="stroke:#010101;stroke-linecap:round;stroke-linejoin:round;stroke-width:6px;fill:#010101"></line>
    <path d="M767.2229,2286.159h729.3783l-12.3211,21.17H728.342C733.3709,2297.5082,741.8035,2289.9919,767.2229,2286.159Z" style="stroke:#010101;stroke-linecap:round;stroke-linejoin:round;stroke-width:6px;fill:#010101"></path>
    <path d="M989.1434,2305.1062h489.306l118.17-259.8291c5.0235-11.0455-2.3208-20-16.404-20H1141.9087c-14.0832,0-29.5722,8.9542-34.5956,20Z" style="stroke:#010101;stroke-linecap:round;stroke-linejoin:round;stroke-width:6px;fill:#010101"></path>
    <path d="M794.07,2284.7322h699.5652l-11.8175,20.374H756.7787l2.7309-4.7082C764.528,2291.746,780.0013,2284.7322,794.07,2284.7322Z" style="stroke:#010101;stroke-linecap:round;stroke-linejoin:round;stroke-width:6px;fill:#010101"></path>
    <path d="M1000.1574,2305.1062h489.306l118.17-259.8291c5.0235-11.0455-2.3209-20-16.404-20H1152.9227c-14.0832,0-29.5722,8.9542-34.5957,20Z" style="fill:#010101"></path>
    <g style="clip-path:url(#clip-path-12)">
      <path d="M1468.8446,1959.3777c230.602,119.3591,3.6135,381.1479-285.8482,355.9833s495.2725,113.077,495.2725,113.077l63.5332-318.2909L1661.7973,2007.54" style="fill:#010101"></path>
    </g>
    <path d="M1000.1574,2305.1062h489.306l118.17-259.8291c5.0235-11.0455-2.3209-20-16.404-20H1152.9227c-14.0832,0-29.5722,8.9542-34.5957,20Z" style="fill:none;stroke:#010101;stroke-linecap:round;stroke-linejoin:round;stroke-width:6px"></path>
    <ellipse cx="1320.816" cy="2156.197" rx="48.446" ry="30.387" style="fill:#fff;stroke:#010101;stroke-linecap:round;stroke-linejoin:round;stroke-width:6px" transform="rotate(-23.767 1320.819 2156.2)"></ellipse>
    <path d="M1271.2467,2152.5992c-15.4068,49.2208,71.5887,40.5471,90.3369-.0053C1376.9941,2103.3784,1289.9987,2112.0521,1271.2467,2152.5992Z" style="fill:#fff;stroke:#010101;stroke-linecap:round;stroke-linejoin:round;stroke-width:6px"></path>
    <path d="M774.9106,1825.0012c-73.7073,0-257.7885,423.2438-257.7885,423.2438L810.11,2280.33s59.9259-274.8613,61.1967-289.5134" style="fill:#fff"></path>
    <g style="clip-path:url(#clip-path-13)">
      <path d="M456.8876,2152.5992c181.5488-41.6051,408.7071,60.973,408.7071,60.973L655.61,2307.33" style="fill:#fff;stroke:#010101;stroke-linecap:round;stroke-linejoin:round;stroke-width:6px"></path>
    </g>
    <path d="M774.9106,1825.0012c-73.7073,0-257.7885,423.2438-257.7885,423.2438L810.11,2280.33s59.9259-274.8613,61.1967-289.5134" style="fill:none;stroke:#010101;stroke-linecap:round;stroke-linejoin:round;stroke-width:6px"></path>
    <path d="M870.926,2291.8368c42.6288-1.5218,104.8238,22.4647,146.2719-27.1409l6.5722,16.8181c36.7148-16.4908,1.979-83.497-26.1154-105.57-22.1723-45.23-111.981,67.3652-121.2608,59.4171-62.4458-7.0553-270.8279-54.3153-311.0687-47.0359-66.8184,8.8883-84.9443,113.2969-9.8645,118.5813C556.1454,2306.5311,868.8238,2292.182,870.926,2291.8368Z" style="fill:#fff"></path>
    <g style="clip-path:url(#clip-path-14)">
      <path d="M677.4721,2161.9453c-209.257,37.4884-155.3009,154.3223-130.3335,183.1493-14.9585-2.6867-181.3663-102.337-156.2517-97.7113,90.8188-153.447,79.8231-118.1481,185.435-127.005" style="fill:#fff"></path>
    </g>
    <path d="M870.926 2291.8368c42.6288-1.5218 104.8238 22.4647 146.2719-27.1409l6.5722 16.8181c36.7148-16.4908 1.979-83.497-26.1154-105.57-22.1723-45.23-111.981 67.3652-121.2608 59.4171-62.4458-7.0553-270.8279-54.3153-311.0687-47.0359-66.8184 8.8883-84.9443 113.2969-9.8645 118.5813C556.1454 2306.5311 868.8238 2292.182 870.926 2291.8368ZM1182.9964 1750.24v-1.6319M882.8084 2238.2581l1.7936 4.909" style="fill:none;stroke:#010101;stroke-linecap:round;stroke-linejoin:round;stroke-width:6px"></path>
    <path d="M1220.2571,2084.1647a72.309,72.309,0,0,1-29.1628,26.3785" style="fill:none;stroke-linecap:round;stroke-linejoin:round;stroke-width:6px;stroke:#fff"></path>
    <path d="m827.2046 2051.3254 25.8866-49.4886M768.8516 1896.5051l34.4143-6.2358" style="fill:none;stroke:#010101;stroke-linecap:round;stroke-linejoin:round;stroke-width:6px"></path>
  </g>
  <g style="clip-path:url(#clip-path-15)">
    <circle cx="1319.148" cy="679.578" r="208.655" style="stroke:#010101;stroke-linecap:round;stroke-linejoin:round;stroke-width:6px;fill:#010101"></circle>
    <path d="M1355.7217,708.658c-74.3781,109.5126-65.3146,56.1923-151.259,33.1157C1318.5608,643.107,1278.7682,654.5032,1355.7217,708.658Z" style="fill:#fff"></path>
    <g style="clip-path:url(#clip-path-16)">
      <path d="M1328.8991,700.363c-26.447-5.1058,23.3782,65.5677,35.3367,92.6764s20.0376-84.2634,20.0376-84.2634l-40.2741-23.0285" style="fill:#fff"></path>
    </g>
    <path d="M1355.7217,708.658c-74.3781,109.5126-65.3146,56.1923-151.259,33.1157C1318.5608,643.107,1278.7682,654.5032,1355.7217,708.658Z" style="fill:none;stroke:#010101;stroke-linecap:round;stroke-linejoin:round;stroke-width:6px"></path>
    <path d="M1294.1533,825.3271l20.8566-14.736c-31.3149-175.49-80.4712-128.5918-91.335-98.9052s75.9043,101.9513,75.9043,101.9513" style="stroke:#010101;stroke-linecap:round;stroke-linejoin:round;stroke-width:6px;fill:#010101"></path>
    <path d="M1664.68,1099.4186c35.4588-4.7962,156.0111-25.4022,164.5921-22.3164s120.3317,34.8741,135.26,35.3364c0,0,25.2627,37.24-99.1834,10.6988,44.8994,60.0294-57.4734,76.1092-86.6351,42.4385-36.2913,13.0274-226.7878,11.4059-226.7878,11.4059Z" style="fill:#fff"></path>
    <g style="clip-path:url(#clip-path-17)">
      <path d="M1701.49,1075.3629c86.024,68.8882,23.6783,110.6751,70.7087,107.17-41.59,83.3455-87.9263,13.9342-139.6711-2.1159-9.6139,8.7611,39.5517-100.7189,39.222-105.0543" style="fill:#fff"></path>
    </g>
    <path d="M1664.68,1099.4186c35.4588-4.7962,156.0111-25.4022,164.5921-22.3164s120.3317,34.8741,135.26,35.3364c0,0,25.2627,37.24-99.1834,10.6988,44.8994,60.0294-57.4734,76.1092-86.6351,42.4385-36.2913,13.0274-226.7878,11.4059-226.7878,11.4059Z" style="fill:none;stroke:#010101;stroke-linecap:round;stroke-linejoin:round;stroke-width:6px"></path>
    <path d="M1582.5049,2018.4492c72.2427,223.0672,40.4661,202.529,167.31,238.3371C1708.11,1956.3474,1761.7125,2026.3387,1582.5049,2018.4492Z" style="fill:#fff"></path>
    <g style="clip-path:url(#clip-path-18)">
      <path d="M1521.9214,2145.5222c120.1432-10.5588,171.2073-65.6947,203.1625-78.49s-133.2061-7.7163-133.2061-7.7163l-50.66,30.3047" style="fill:#fff"></path>
    </g>
    <path d="M1582.5049,2018.4492c72.2427,223.0672,40.4661,202.529,167.31,238.3371C1708.11,1956.3474,1761.7125,2026.3387,1582.5049,2018.4492Z" style="fill:none;stroke:#010101;stroke-linecap:round;stroke-linejoin:round;stroke-width:6px"></path>
    <path d="M1598.4593,2260.102c19.9655-146.634,40.5359-39.376,113.7322-59.4081,38.7383-20.7131,45.7611-54.9925,50.6851-38.3874,13.5641,163.467,230.4149,88.3919,194.0481,174.2265-22.4861,32.0782-9.0185,17.5084-64.742,8.4243C1769.1078,2308.425,1608.7787,2297.346,1598.4593,2260.102Z" style="fill:#fff;stroke:#010101;stroke-linecap:round;stroke-linejoin:round;stroke-width:6px"></path>
    <path d="M1496.2785,2089.0021c0,68.9051,276.7609-44.3824,272.6278-48.6472-27.6163-125.192-79.97-415.0713-96.553-458.343-20.5554-92.08-502.1139-290.8479-569.2933-342.6241l-25.9859,130.7491,385.3,240.8865s51.2846,213.6155,15.8526,223.4895,47.9107,98.6064,8.6872,122.4717,6.7128,94.6378,6.7128,94.6378Z" style="fill:#010101"></path>
    <g style="clip-path:url(#clip-path-19)">
      <path d="M1598.4593,1560.0324c73.894,21.9795-170.3515,249.2952-152.9445,400.22s-131.037-86.3128-89.6191-88.6333c86.7172-322.16,36.9581-226.1052,242.6416-336.48" style="fill:#010101"></path>
      <path d="M1437.8992,2043.48c232.54,32.3409,391.9589-84.2832,391.9589-84.2832" style="fill:none;stroke-linecap:round;stroke-linejoin:round;stroke-width:6px;stroke:#fff"></path>
      <line x1="1671.687" x2="1579.469" y1="2013.733" y2="1584.226" style="fill:none;stroke-linecap:round;stroke-linejoin:round;stroke-width:6px;stroke:#fff"></line>
    </g>
    <path d="M1496.2785,2089.0021c0,68.9051,276.7609-44.3824,272.6278-48.6472-27.6163-125.192-79.97-415.0713-96.553-458.343-20.5554-92.08-502.1139-290.8479-569.2933-342.6241l-25.9859,130.7491,385.3,240.8865s51.2846,213.6155,15.8526,223.4895,47.9107,98.6064,8.6872,122.4717,6.7128,94.6378,6.7128,94.6378Z" style="fill:none;stroke:#010101;stroke-linecap:round;stroke-linejoin:round;stroke-width:6px"></path>
    <polygon points="1197.836 1778.59 1038.974 1927.622 1135.24 1979.745 1353.816 1812.907 1197.836 1778.59" style="fill:#fff"></polygon>
    <g style="clip-path:url(#clip-path-20)">
      <path d="M1038.9744,1831.7341c103.6209,64.452,145.4153,48.5852,205.0929,71.0823.8772-16.8618-172.3759-129.9183-194.16-111.0726" style="fill:#fff"></path>
    </g>
    <polygon points="1197.836 1778.59 1038.974 1927.622 1135.24 1979.745 1353.816 1812.907 1197.836 1778.59" style="fill:none;stroke:#010101;stroke-linecap:round;stroke-linejoin:round;stroke-width:6px"></polygon>
    <path d="M990.3749,1944.2153c145.544-133.0731,48.8972,47.0866,205.1546-.3871-6.6541,16.18-47.642,69.4194-2.2693,128.546,89.2888,86.6976,36.8817,102.7971,10.4107,105.7249C1199.623,2171.6936,967.37,1974.3794,990.3749,1944.2153Z" style="fill:#fff;stroke:#010101;stroke-linecap:round;stroke-linejoin:round;stroke-width:6px"></path>
    <path d="M1065.6377,1731.7849c-51.1534,1.0879,182.8275,227.5082,224.1632,152.3193,156.9868-173.89,488.6041-362.8287,298.7534-465.7069.574-.8933-425.5464-182.3963-412.163-179.9811,5.7149-15.5123,63.6812-122.54,51.0691-109.6135-20.9374-14.6277-212.539-148.4349-213.7665-149.29l-70.0967,128.1384c-537.0758,515.509,378.9974,443.7052,378.9974,443.7052s-28.2223,47.4811-79.3962,55.75-65.3754,73.2656-109.9631,77.2134S1065.6377,1731.7849,1065.6377,1731.7849Z" style="fill:#010101"></path>
    <g style="clip-path:url(#clip-path-21)">
      <path d="M730.4612,1620.7649c47.924,19.7378,300.43-26.3744,273.0629-45.3872-217.9816-151.438-2.7327-404.57,168.8647-333.4048,215.6332,89.4273-224.4317-174.2117-224.4317-174.2117s-98.9585-39.8391-115.9228,11.8525" style="fill:#010101"></path>
      <path d="M1118.0445 1668.14c-50.5638 52.2212 183.2319 201.7144 235.7712 211.0274M1158.5412 1268.9412c-56.7276 64.6894-172.878 36.4029-172.878 36.4029" style="fill:none;stroke-linecap:round;stroke-linejoin:round;stroke-width:6px;stroke:#fff"></path>
      <path d="M1092.4831,1320.5753c513.2414,208.1927,516.9893,104.3441,130.2506,463.4923" style="fill:none;stroke-linecap:round;stroke-linejoin:round;stroke-width:6px;stroke:#fff"></path>
      <path d="M1771.6588,1447.6939c-5.1483,105.95-169.3466,100.89-173.3107-.0047C1603.4963,1341.7436,1767.6945,1346.8038,1771.6588,1447.6939Z" style="fill:#010101"></path>
    </g>
    <path d="M1065.6377,1731.7849c-51.1534,1.0879,182.8275,227.5082,224.1632,152.3193,156.9868-173.89,488.6041-362.8287,298.7534-465.7069.574-.8933-425.5464-182.3963-412.163-179.9811,5.7149-15.5123,63.6812-122.54,51.0691-109.6135-20.9374-14.6277-212.539-148.4349-213.7665-149.29l-70.0967,128.1384c-537.0758,515.509,378.9974,443.7052,378.9974,443.7052s-28.2223,47.4811-79.3962,55.75-65.3754,73.2656-109.9631,77.2134S1065.6377,1731.7849,1065.6377,1731.7849Z" style="fill:none;stroke:#010101;stroke-linecap:round;stroke-linejoin:round;stroke-width:6px"></path>
    <path d="M1223.6749,711.6859c183.8777,144.2409,105.5514,340.8994,22.9151,537.53-1.5466,23.144-397.7584-92.9976-403.0575-130.0851C812.5839,1026.8863,1094.1325,728.7477,1223.6749,711.6859Z" style="fill:#010101"></path>
    <g style="clip-path:url(#clip-path-22)">
      <path d="M1159.8032,957.6427c-280.1544,29.3744,353.0821,266.1863-127.8689,233.295s240.2245,172.73,240.2245,172.73l194.2334-84.8594-122.2791-212.1486-121.3794-97.9147" style="fill:#010101"></path>
    </g>
    <path d="M1223.6749,711.6859c183.8777,144.2409,105.5514,340.8994,22.9151,537.53-1.5466,23.144-397.7584-92.9976-403.0575-130.0851C812.5839,1026.8863,1094.1325,728.7477,1223.6749,711.6859Z" style="fill:none;stroke:#010101;stroke-linecap:round;stroke-linejoin:round;stroke-width:6px"></path>
    <path d="M1233.2684,804.986c72.8582,32.756,135.5465,215.9465,221.0505,243.721,76.656,24.9,251.33,40.3028,253.212,40.4595,2.05-4.5291,56.4326,74.0489-10.2847,302.6076-483.8117-55.4947-499.25-307.1188-584.9314-453.9257" style="fill:#010101"></path>
    <g style="clip-path:url(#clip-path-23)">
      <path d="M1398.5481,1253.8338c-1.9941,68.06-142.5654,70.5421-147.8636-.0066C1252.6789,1185.7733,1393.25,1183.2917,1398.5481,1253.8338Z" style="fill:#010101"></path>
    </g>
    <path d="M1233.2684 804.986c72.8582 32.756 135.5465 215.9465 221.0505 243.721 76.656 24.9 251.33 40.3028 253.212 40.4595 2.05-4.5291 56.4326 74.0489-10.2847 302.6076-483.8117-55.4947-499.25-307.1188-584.9314-453.9257M1182.69 1984.116l47.5839-6.5322M1182.64 1990.84l7.139 4.35M1779.7752 2198.4207a105.04 105.04 0 0 1 20.378-12.87M1773.887 2203.2027a234.9476 234.9476 0 0 0 38.127 2.9922" style="fill:none;stroke:#010101;stroke-linecap:round;stroke-linejoin:round;stroke-width:6px"></path>
    <path d="M1358.7711 1568.7088c16.81-.1028 33.4729-6.4782 45.3548-17.3528M1410.9334 1065.86l-11.8612 13.0819" style="fill:none;stroke-linecap:round;stroke-linejoin:round;stroke-width:6px;stroke:#fff"></path>
    <path d="M1865.71,1121.1214l-15.5783-3.9809" style="fill:none;stroke:#010101;stroke-linecap:round;stroke-linejoin:round;stroke-width:6px"></path>
    <path d="M1148.47 897.4142c-15.37 9.0762-23.0691 27.7633-18.07 43.8584M1022.0671 1009.79c.1944 14.5806-6.7333 29.12-18.543 38.917" style="fill:none;stroke-linecap:round;stroke-linejoin:round;stroke-width:6px;stroke:#fff"></path>
    <path d="M1390.6621,589.3841c32.4379,6.9588,17.534,54.278,28.0544,73.7624s-7.0136,102.989-85.9167,48.0152-59.915-110.5034-59.915-110.5034Z" style="fill:#fff"></path>
    <g style="clip-path:url(#clip-path-24)">
      <path d="M1416.45,595.1908c-25.34,8.51-59.4524,2.807-59.4524,2.807s-15.9189,5.4327-5.8478,21.6844-8.7716,33.8732-47.107,26.0939,12.67-63.7365,12.67-63.7365l87.6757-2.8365" style="fill:#fff"></path>
    </g>
    <path d="M1390.6621,589.3841c32.4379,6.9588,17.534,54.278,28.0544,73.7624s-7.0136,102.989-85.9167,48.0152-59.915-110.5034-59.915-110.5034Z" style="fill:none;stroke:#010101;stroke-linecap:round;stroke-linejoin:round;stroke-width:6px"></path>
    <path d="M1404.3115,591.7986c-35.2625-12.6533-72.1823,7.1966-57.0592,34.3356s-64.3391,18.249-64.3391,18.249l-10.0284-51.6684,79.7261-15.1352S1406.6978,579.4006,1404.3115,591.7986Z" style="stroke:#010101;stroke-linecap:round;stroke-linejoin:round;stroke-width:6px;fill:#010101"></path>
    <path d="M1312.5018,637.0766c-7.912,8.1662-47.9993,13.57-47.9993,13.57v-5.3678c-24.986-62.48,5.9177-87.0092,50.6294-84.4s64.7608-19.31,89.2563-5.7409,25.8107,40.1866-11.6683,41.23-94.6836-4.1752-94.6836-4.1752" style="fill:#010101"></path>
    <g style="clip-path:url(#clip-path-25)">
      <path d="M1374.0531 544.52c13.6448 24.3684-28.2642 29.7236-65.3 16.7958s48.2441-19.5035 48.2441-19.5035ZM1282.9132 644.3832c14.1442-6.2575-24.8409-4.449-24.8409-4.449l-6.8224 19.66 23.8784 2.9058" style="fill:#010101"></path>
    </g>
    <path d="M1312.5018,637.0766c-7.912,8.1662-47.9993,13.57-47.9993,13.57v-5.3678c-24.986-62.48,5.9177-87.0092,50.6294-84.4s64.7608-19.31,89.2563-5.7409,25.8107,40.1866-11.6683,41.23-94.6836-4.1752-94.6836-4.1752" style="fill:none;stroke:#010101;stroke-linecap:round;stroke-linejoin:round;stroke-width:6px"></path>
    <path d="M1305.6221,654.4481c-63.9991-47.6672-72.3278,57.4094,0,30.27" style="fill:#fff;stroke:#010101;stroke-linecap:round;stroke-linejoin:round;stroke-width:6px"></path>
    <path d="M1405.5145,638.48c-.5107,20.9039-27.1531,20.0669-28.4969.596C1377.5282,618.172,1404.1705,619.0091,1405.5145,638.48Z" style="fill:#fff"></path>
    <g style="clip-path:url(#clip-path-26)">
      <path d="M1408.3166,639.6908c-.87,10.04-14.5009,10.49-14.6447-.5575C1394.5417,629.0943,1408.1727,628.6437,1408.3166,639.6908Z" style="fill:#010101"></path>
    </g>
    <path d="M1408.4276,633.4434c10.8539,11.3285,23.04,17.98,22.8682,22.3358s-8.8585,9.9674-21.8075,8.85" style="fill:#fff"></path>
    <path d="M1408.4276,633.4434c10.8539,11.3285,23.04,17.98,22.8682,22.3358s-8.8585,9.9674-21.8075,8.85" style="fill:none;stroke:#010101;stroke-linecap:round;stroke-linejoin:round;stroke-width:6px"></path>
    <path d="M1363.9949,673.0445c-6.0182,4.9732-17.6615,4.6645-26.3031-.8228-8.9419-5.6778-11.36-14.7509-5.0737-20.12,6.3335-5.41,18.7573-4.7332,27.4259,1.3513C1368.4178,659.33,1370.0555,668.0362,1363.9949,673.0445Z" style="fill:#fff;opacity:.3"></path>
    <path d="M1400.5989,609.9849c-21.5036-1.0556-26.46,5.9615-13.0735,7.3174S1414.6481,610.6745,1400.5989,609.9849Z" style="fill:#010101"></path>
    <path d="M1381.2777 672.6726c5.9374 10.2045 17.5623 8.5767 17.5623 8.5767M1281.1349 656.0205c-4.2475-.2646-6.9021 7.4087 1.77 10.7162" style="fill:none;stroke:#010101;stroke-linecap:round;stroke-linejoin:round;stroke-width:6px"></path>
    <path d="M1525.9951,1221.7929a266.1833,266.1833,0,0,1-101.8155,27.6959" style="fill:none;stroke-linecap:round;stroke-linejoin:round;stroke-width:6px;stroke:#fff"></path>
  </g>
  <path d="M1866.274,2526.0029H772.0212a140.7762,140.7762,0,0,1-140.7761-140.7762V2150.1983a140.7761,140.7761,0,0,1,140.7761-140.7761H1866.274A140.7761,140.7761,0,0,1,2007.05,2150.1983v235.0284A140.7762,140.7762,0,0,1,1866.274,2526.0029Z" style="fill:#fff"></path>
  <path d="M1866.274,2526.0029H772.0212a140.7762,140.7762,0,0,1-140.7761-140.7762V2150.1983a140.7761,140.7761,0,0,1,140.7761-140.7761H1866.274A140.7761,140.7761,0,0,1,2007.05,2150.1983v235.0284A140.7762,140.7762,0,0,1,1866.274,2526.0029Z" style="fill:none;stroke:#010101;stroke-linecap:round;stroke-linejoin:round;stroke-width:6px"></path>
  <path d="M1943.5505,2370.6087H694.7446c-117.93,0-204.6-94.582-193.8423-208.5134l84.95-899.681c8.43-89.2772,97.06-160.1582,198.1345-160.1582h1070.322c101.0748,0,189.7048,70.881,198.1345,160.1582l84.95,899.681C2148.1505,2276.0267,2061.48,2370.6087,1943.5505,2370.6087Z" style="fill:#fff"></path>
  <g style="clip-path:url(#clip-path-27)">
    <polygon points="2167.516 1463.553 1936.718 1463.553 1880.02 1508.478 1820.172 1463.553 1568.181 1463.553 1514.634 1432.881 1429.587 1463.553 935.055 1463.553 875.207 1495.879 796.46 1463.553 44.495 1463.553 44.495 902.874 2167.516 902.874 2167.516 1463.553" style="fill:#fff"></polygon>
    <polygon points="2167.516 1450.124 1936.718 1450.124 1880.02 1496.818 1820.172 1450.124 1568.181 1450.124 1514.634 1418.244 1429.587 1450.124 935.055 1450.124 875.207 1483.722 796.46 1450.124 44.495 1450.124 44.495 867.367 2167.516 867.367 2167.516 1450.124" style="fill:#fff;stroke:#010101;stroke-linecap:round;stroke-linejoin:round;stroke-width:6px"></polygon>
    <rect width="2123.021" height="560.679" x="44.495" y="846.066" style="fill:#fff;stroke:#010101;stroke-linecap:round;stroke-linejoin:round;stroke-width:6px"></rect>
    <path d="M2142.8422,1463.0878C2189.21,2367.2594,431.879,2283.046,531.562,2367.2594s2051.7741,405.718,2051.7741,405.718l-289.7986-1228.746" style="fill:#fff"></path>
  </g>
  <path d="M1943.5505,2370.6087H694.7446c-117.93,0-204.6-94.582-193.8423-208.5134l84.95-899.681c8.43-89.2772,97.06-160.1582,198.1345-160.1582h1070.322c101.0748,0,189.7048,70.881,198.1345,160.1582l84.95,899.681C2148.1505,2276.0267,2061.48,2370.6087,1943.5505,2370.6087Z" style="fill:none;stroke:#010101;stroke-linecap:round;stroke-linejoin:round;stroke-width:6px"></path>
  <circle cx="963.998" cy="1245.576" r="69.297" style="fill:#fff"></circle>
  <path d="M959.2412,1004.61h9.5143a39.3412,39.3412,0,0,1,39.3412,39.3412v200.05a44.0983,44.0983,0,0,1-44.0983,44.0983h0A44.0983,44.0983,0,0,1,919.9,1244.0009v-200.05a39.3412,39.3412,0,0,1,39.3412-39.3412Z" style="fill:#fff;stroke:#010101;stroke-linecap:round;stroke-linejoin:round;stroke-width:6px"></path>
  <circle cx="1674.297" cy="1245.576" r="69.297" style="fill:#fff"></circle>
  <path d="M1669.54,1004.61h9.5143a39.3412,39.3412,0,0,1,39.3412,39.3412v200.05a44.0983,44.0983,0,0,1-44.0983,44.0983h0a44.0983,44.0983,0,0,1-44.0983-44.0983v-200.05A39.3412,39.3412,0,0,1,1669.54,1004.61Z" style="fill:#fff;stroke:#010101;stroke-linecap:round;stroke-linejoin:round;stroke-width:6px"></path>
  <polygon points="1244.565 2115.492 986.132 1847.569 1082.26 1754.849 1250.043 1928.795 1561.644 1641.634 1652.163 1739.849 1244.565 2115.492" style="fill:#fff;stroke:#010101;stroke-linecap:round;stroke-linejoin:round;stroke-width:6px"></polygon>
  <path d="M1942.4169,1197.0462a216.3369,216.3369,0,0,1-56.8478,60.6944" style="fill:none;stroke-linecap:round;stroke-linejoin:round;stroke-width:6px;stroke:#fff"></path>
  <path d="M793.3331 2223.9222a140.5456 140.5456 0 0 1-69.4831 43.9967M1837.5361 2441.3541a49.7776 49.7776 0 0 1-45.4711 19.901" style="fill:none;stroke:#010101;stroke-linecap:round;stroke-linejoin:round;stroke-width:6px"></path>
  <rect width="1404.847" height="1902.611" x="2095.153" y="646.08" rx="115.74" style="fill:#fff"></rect>
  <g style="clip-path:url(#clip-path-28)">
    <path d="M2277.8721 609.6268c179.51-21.1441 173.2172 155.7022 173.2172 155.7022h692.9739s-11.0692-180.11 63.9988-199.6931-956.3-28.2305-956.3-28.2305M3550.7635 1651.1825c-71.8041-15.0123-88.1232 598.5866-104.4424 761.7778s-923.6622 95.2135-995.4663 135.73 1161.9214 27.4612 1161.9214 27.4612l32.6382-577.5076" style="fill:#010101"></path>
  </g>
  <rect width="1404.847" height="1902.611" x="2095.153" y="646.08" rx="115.74" style="fill:none;stroke:#010101;stroke-linecap:round;stroke-linejoin:round;stroke-width:6px"></rect>
  <rect width="1130.195" height="1455.309" x="2232.479" y="923.528" rx="18.315" style="fill:#fff;stroke:#010101;stroke-linecap:round;stroke-linejoin:round;stroke-width:6px"></rect>
  <rect width="1187.123" height="1528.613" x="2204.015" y="731.471" rx="18.315" style="fill:#fff;stroke:#010101;stroke-linecap:round;stroke-linejoin:round;stroke-width:6px"></rect>
  <path d="M2797.5763,380.9612A156.4442,156.4442,0,1,0,2954.02,537.4081,156.4441,156.4441,0,0,0,2797.5763,380.9612Zm0,204.0092a47.565,47.565,0,1,1,47.565-47.5623A47.5659,47.5659,0,0,1,2797.5763,584.97Z" style="fill:#fff;stroke:#010101;stroke-linecap:round;stroke-linejoin:round;stroke-width:6px"></path>
  <path d="M3007.1831,546.2323H2844.2509a47.4863,47.4863,0,0,1-93.3479,0H2587.9708a136.8815,136.8815,0,0,0-136.8815,136.88V765.329a47.594,47.594,0,0,0,47.5923,47.595h597.7907a47.5928,47.5928,0,0,0,47.5909-47.595V683.1124A136.88,136.88,0,0,0,3007.1831,546.2323Z" style="fill:#fff;stroke:#010101;stroke-linecap:round;stroke-linejoin:round;stroke-width:6px"></path>
  <rect width="132.295" height="132.295" x="2337.169" y="932.999" rx="12.72" style="stroke:#010101;stroke-linecap:round;stroke-linejoin:round;stroke-width:6px;fill:#010101"></rect>
  <rect width="663.401" height="95.953" x="2515.137" y="951.17" rx="7.64" style="stroke:#010101;stroke-linecap:round;stroke-linejoin:round;stroke-width:6px;fill:#010101"></rect>
  <rect width="132.295" height="132.295" x="2337.169" y="1166.336" rx="12.72" style="stroke:#010101;stroke-linecap:round;stroke-linejoin:round;stroke-width:6px;fill:#010101"></rect>
  <rect width="380.611" height="95.953" x="2515.137" y="1184.507" rx="7.64" style="stroke:#010101;stroke-linecap:round;stroke-linejoin:round;stroke-width:6px;fill:#010101"></rect>
  <rect width="132.295" height="132.295" x="2337.169" y="1399.674" rx="12.72" style="stroke:#010101;stroke-linecap:round;stroke-linejoin:round;stroke-width:6px;fill:#010101"></rect>
  <rect width="663.401" height="95.953" x="2515.137" y="1417.845" rx="7.64" style="stroke:#010101;stroke-linecap:round;stroke-linejoin:round;stroke-width:6px;fill:#010101"></rect>
  <rect width="132.295" height="132.295" x="2337.169" y="1633.011" rx="12.72" style="stroke:#010101;stroke-linecap:round;stroke-linejoin:round;stroke-width:6px;fill:#010101"></rect>
  <rect width="531.805" height="95.953" x="2515.137" y="1651.182" rx="7.64" style="stroke:#010101;stroke-linecap:round;stroke-linejoin:round;stroke-width:6px;fill:#010101"></rect>
  <rect width="132.295" height="132.295" x="2337.169" y="1866.349" rx="12.72" style="stroke:#010101;stroke-linecap:round;stroke-linejoin:round;stroke-width:6px;fill:#010101;opacity:.44"></rect>
  <rect width="399.51" height="95.953" x="2515.137" y="1884.52" rx="7.64" style="stroke:#010101;stroke-linecap:round;stroke-linejoin:round;stroke-width:6px;fill:#010101;opacity:.44"></rect>
  <path d="M2968.5244 675.025a315.8511 315.8511 0 0 1-70.3233 55.8074M2254.1027 2458.4293l21.7358-13.0934" style="fill:none;stroke-linecap:round;stroke-linejoin:round;stroke-width:6px;stroke:#fff"></path>
  <path d="M3208.3215,1832.2555l-32.4061,32.8671" style="fill:none;stroke:#010101;stroke-linecap:round;stroke-linejoin:round;stroke-width:6px"></path>
  <path d="M2087.5173,2608.0709l225.3194-129.2636a3.5915,3.5915,0,0,0-1.2738-6.67l-333.6339-48.1834,7.5261,139.2315-28.5989,34.62,124.7751,11.5465A9.98,9.98,0,0,0,2087.5173,2608.0709Z" style="stroke:#010101;stroke-linecap:round;stroke-linejoin:round;stroke-width:6px;fill:#010101"></path>
  <path d="M2080.83,2599.0937,2306.15,2469.83a3.5915,3.5915,0,0,0-1.2739-6.67l-333.6338-48.1834,7.526,139.2315-28.5989,34.62,124.7751,11.5466A9.9807,9.9807,0,0,0,2080.83,2599.0937Z" style="fill:#010101"></path>
  <path d="M1651.898,2391.7235c27.8677-18.7025,974.6181-24.3749,1024.9514-28.034-.0207.5,6.4693-212.6856,13.55-445.28-11.1132-636.851,152.8383-580.2878-283.6663-612.7206-139.211-8.3457-453.3335,68.9459-421.7915,115.7493-83.2154,365.7088-217.9519,803.2213-170.4513,1023.6315" style="fill:#010101"></path>
  <g style="clip-path:url(#clip-path-29)">
    <path d="M2566.04,1302.3269c-65.8183,216.0254-627.5722,405.2365-485.9126,51.155C2160.7168,1158.4987,2654.1853,989.4443,2566.04,1302.3269Z" style="fill:#fff;stroke:#010101;stroke-linecap:round;stroke-linejoin:round;stroke-width:6px"></path>
    <path d="M2534.2681,1297.92c-74.678,171.15-551.91,287.6671-434.3742-.0109C2174.586,1126.77,2651.8178,1010.2528,2534.2681,1297.92Z" style="fill:#fff;stroke:#010101;stroke-linecap:round;stroke-linejoin:round;stroke-width:6px"></path>
    <path d="M1814.1622,2151.2115c864.6053,221.98,746.8879-641.896,861.3071-508.2371s55.5261,399.0768,55.5261,413.227-141.5,375.8335-141.5,375.8335c-.9928-.1876-615.5588-23.4726-618.6495-23.699-.9651.9347-165.7292-158.1894-170.222-161.1077" style="fill:#010101"></path>
    <path d="M2248.5612,1616.9971c-273.0405,8.53-318.0534,381.3771-56.6169,423.6046C2498.6847,2071.1878,2547.6361,1627.335,2248.5612,1616.9971Zm-26.1971,379.695c-237.529-14.5987-186.477-330.7194,23.0634-334.1283C2482.9539,1677.16,2431.8958,1993.2817,2222.3641,1996.6921Z" style="stroke:#010101;stroke-linecap:round;stroke-linejoin:round;stroke-width:6px;fill:#010101"></path>
    <path d="M1807.9536,1908.5843c171.6749-139.0794,150.29-198.4826,119.4,153.1845s-130.6871,234.6126-130.6871,234.6126L1770.5291,2136.38" style="fill:#010101"></path>
  </g>
  <path d="M1651.898,2391.7235c27.8677-18.7025,974.6181-24.3749,1024.9514-28.034-.0207.5,6.4693-212.6856,13.55-445.28-11.1132-636.851,152.8383-580.2878-283.6663-612.7206-139.211-8.3457-453.3335,68.9459-421.7915,115.7493-83.2154,365.7088-217.9519,803.2213-170.4513,1023.6315" style="fill:none;stroke:#010101;stroke-linecap:round;stroke-linejoin:round;stroke-width:6px"></path>
  <path d="M2032.8473,1374.4883c-466.6653,31.4689-391.2495,670.3345-499.9011,882.1485l299.2962,39.7446L1946.1289,1651.35" style="fill:#010101"></path>
  <path d="M2032.8473,1374.4883c-466.6653,31.4689-391.2495,670.3345-499.9011,882.1485l299.2962,39.7446L1946.1289,1651.35" style="fill:none;stroke:#010101;stroke-linecap:round;stroke-linejoin:round;stroke-width:6px"></path>
  <path d="M2372.5411,1336.132l-25.0138-231.7013c-202.5433,111.0239-140.54,106.9049-142.941,243.1648" style="fill:#fff"></path>
  <g style="clip-path:url(#clip-path-30)">
    <path d="M2336.9842,1171.4673c-98.52,123.0515-44.1173,161.2422-165.0674,183.8636s56.6152-152.5793,56.6152-152.5793l96.9813-26.3356" style="fill:#fff"></path>
  </g>
  <path d="M2372.5411,1336.132l-25.0138-231.7013c-202.5433,111.0239-140.54,106.9049-142.941,243.1648" style="fill:none;stroke:#010101;stroke-linecap:round;stroke-linejoin:round;stroke-width:6px"></path>
  <path d="M2652.5131,2142.3445c-1.0815.32-563.675,197.8587-613.9443,215.4569-184.195-90.9574-302.4969,117.8044-418.8406,186.4369,80.5308,5.46,250.3931,4.857,316.9848-52.7686l-90.3233,78.5546c-25.7142,91.6679,263.8988-115.2111,274.0037-83.8457C3148.3715,2438.6954,2842.0172,2086.6026,2652.5131,2142.3445Z" style="fill:#fff"></path>
  <g style="clip-path:url(#clip-path-31)">
    <path d="M2366.0984,2466.9072c292.0023-24.18,60.92-239.5956,60.92-239.5956,71.1607-44.81,49.2423-19.6251,119.4015,53.7514,77.987,93.6771,104.97,98.4513,54.6534,174.6988" style="fill:#fff"></path>
  </g>
  <path d="M2652.5131,2142.3445c-1.0815.32-563.675,197.8587-613.9443,215.4569-184.195-90.9574-302.4969,117.8044-418.8406,186.4369,80.5308,5.46,250.3931,4.857,316.9848-52.7686l-90.3233,78.5546c-25.7142,91.6679,263.8988-115.2111,274.0037-83.8457C3148.3715,2438.6954,2842.0172,2086.6026,2652.5131,2142.3445Z" style="fill:none;stroke:#010101;stroke-linecap:round;stroke-linejoin:round;stroke-width:6px"></path>
  <path d="M2665.9892,1729.1117c-50.5751,297.8381-240.7613,508.81-502.3746,567.27,0,0-76.0486,258.3489,204.2152,282.1955,171.3211,14.577,590.7638-101.1136,625.2177-481.1662,36.4264-401.8111,3.1839-696.2058-395.1719-777.2538" style="fill:#010101"></path>
  <g style="clip-path:url(#clip-path-32)">
    <path d="M3120.7067,2228.7862c-3.6788,154.92-208.5049,162.532-217.4158-.0121C2906.97,2073.8658,3111.7958,2066.2541,3120.7067,2228.7862Z" style="stroke:#010101;stroke-linecap:round;stroke-linejoin:round;stroke-width:6px;fill:#010101"></path>
  </g>
  <path d="M2665.9892 1729.1117c-50.5751 297.8381-240.7613 508.81-502.3746 567.27 0 0-76.0486 258.3489 204.2152 282.1955 171.3211 14.577 590.7638-101.1136 625.2177-481.1662 36.4264-401.8111 3.1839-696.2058-395.1719-777.2538M2495.7971 1198.2736l24.9459-3.5878" style="fill:none;stroke:#010101;stroke-linecap:round;stroke-linejoin:round;stroke-width:6px"></path>
  <path d="M2614.6035 2143.3738a72.4494 72.4494 0 0 1 52.1094 24.4087M2553.2653 1683.5773l-14.1144 9.7115" style="fill:none;stroke-linecap:round;stroke-linejoin:round;stroke-width:6px;stroke:#fff"></path>
  <path d="M2174.5981,872.9967c32.4014-1.141,49.1807-70.7431,104.726-58.1919s32.4014-45.07,100.6758,4.564,43.9734,146.9846,43.9734,146.9846Z" style="fill:#fff"></path>
  <g style="clip-path:url(#clip-path-33)">
    <path d="M2456.83,882.599c-108.0047,18.6466-222.467-39.9456-193.78,0s178.2813,83.7544,178.2813,83.7544l20.1274-32.6975" style="fill:#fff"></path>
  </g>
  <path d="M2174.5981,872.9967c32.4014-1.141,49.1807-70.7431,104.726-58.1919s32.4014-45.07,100.6758,4.564,43.9734,146.9846,43.9734,146.9846Z" style="fill:none;stroke:#010101;stroke-linecap:round;stroke-linejoin:round;stroke-width:6px"></path>
  <path d="M2247.1658,1171.373l-46.531-204.5764-76.3746,8.321c2.2128,22.3559-33.1166,83.7095-48.2325,141.0064-63.8029,2.9474-114.6167,54.8754-114.6167,118.5152,0,65.5319,53.8786,118.6574,120.34,118.6574s120.34-53.1255,120.34-118.6574c0-3.9444-.2046-7.8408-.5858-11.6855C2233.5341,1204.6729,2247.1658,1171.373,2247.1658,1171.373Z" style="fill:#010101"></path>
  <g style="clip-path:url(#clip-path-34)">
    <path d="M2104.8685,1110.064c-12.2958,97.749,7.2111,175.5445,97.222,184.0953s24.9939-72.2489,24.9939-72.2489" style="fill:#010101"></path>
  </g>
  <path d="M2247.1658,1171.373l-46.531-204.5764-76.3746,8.321c2.2128,22.3559-33.1166,83.7095-48.2325,141.0064-63.8029,2.9474-114.6167,54.8754-114.6167,118.5152,0,65.5319,53.8786,118.6574,120.34,118.6574s120.34-53.1255,120.34-118.6574c0-3.9444-.2046-7.8408-.5858-11.6855C2233.5341,1204.6729,2247.1658,1171.373,2247.1658,1171.373Z" style="fill:none;stroke:#010101;stroke-linecap:round;stroke-linejoin:round;stroke-width:6px"></path>
  <path d="M2124.26,975.1178c30.087,67.32-85.0236,149.1391,36.34,275.5026,106.4617,110.8482,271.4738-235.567,220.5573-290.3358S2124.26,975.1178,2124.26,975.1178Z" style="fill:#fff"></path>
  <g style="clip-path:url(#clip-path-35)">
    <path d="M2046.9154,1152.37c2.3735,12.72,21.7285,21.21,43.9106,18.9771,22.9526-2.3109,40.3654-15.171,38.1456-28.7413-2.2365-13.6722-23.405-22.1683-46.5186-18.9863C2060.1254,1126.693,2044.525,1139.56,2046.9154,1152.37Z" style="fill:#fff;opacity:.3"></path>
    <path d="M2099.0592 1006.0448c51.1491 20.7055 134.6983-14.9784 134.6983-14.9784s30.3443 46.3352 83.754 19.423h0l7.3906-57.31H2123.8478l-16.8254 13.1737M2300.603 1155.9549c-35.57 17.9364-47.1312 51.4286-37.5531 116.403s42.6034-35.4691 42.6034-35.4691" style="fill:#fff"></path>
  </g>
  <path d="M2124.26,975.1178c30.087,67.32-85.0236,149.1391,36.34,275.5026,106.4617,110.8482,271.4738-235.567,220.5573-290.3358S2124.26,975.1178,2124.26,975.1178Z" style="fill:none;stroke:#010101;stroke-linecap:round;stroke-linejoin:round;stroke-width:6px"></path>
  <path d="M2239.98,970.5537c-6.9431,62.756,77.532,39.9357,77.532,39.9357,50.9165,111.82-47.8506,175.4705-38.9688,209.8242s96.724,59.6495,144.1689,39.65c-16.2007-277.87,5.89-360.1528-91.3138-360.1528S2239.98,970.5537,2239.98,970.5537Z" style="stroke:#010101;stroke-linecap:round;stroke-linejoin:round;stroke-width:6px;fill:#010101"></path>
  <path d="M2262.5921,942.6207c9.7889,64.4456-140.6463,57.06-140.6463,57.06s-57.86-46.051,10.4148-60.41S2262.5921,942.6207,2262.5921,942.6207Z" style="fill:#010101"></path>
  <g style="clip-path:url(#clip-path-36)">
    <path d="M2031.81,1016.7306c52.7209-41.5237,192.1266-47.6345,215.3554-52.9494s-86.0758-25.8049-86.0758-25.8049L2069.331,948.579" style="fill:#010101"></path>
  </g>
  <path d="M2262.5921,942.6207c9.7889,64.4456-140.6463,57.06-140.6463,57.06s-57.86-46.051,10.4148-60.41S2262.5921,942.6207,2262.5921,942.6207Z" style="fill:none;stroke:#010101;stroke-linecap:round;stroke-linejoin:round;stroke-width:6px"></path>
  <path d="M2099.0592,961.4256s35.8-101.5506,81.9954-96.9865,209.6168,10.1827,253.4028,74.8324c25.0638,37.0064-7.8673,134.0994-23.8091,140.0686C2321.6005,916.4386,2099.0592,961.4256,2099.0592,961.4256Z" style="fill:#fff"></path>
  <g style="clip-path:url(#clip-path-37)">
    <path d="M2063.9783,926.5065c172.46-38.527,236.7973-5.6049,223.3937-3.5632s-155.68-18.0771-205.621,12.6878,31.3739-59.1057,31.3739-59.1057" style="fill:#fff"></path>
  </g>
  <path d="M2099.0592,961.4256s35.8-101.5506,81.9954-96.9865,209.6168,10.1827,253.4028,74.8324c25.0638,37.0064-7.8673,134.0994-23.8091,140.0686C2321.6005,916.4386,2099.0592,961.4256,2099.0592,961.4256Z" style="fill:none;stroke:#010101;stroke-linecap:round;stroke-linejoin:round;stroke-width:6px"></path>
  <path d="M2207.9771,1085.4991c-6.0206,45.5355,36.3514,51.8,45.2742,7.934C2259.6055,1045.6477,2216.39,1043.3031,2207.9771,1085.4991Z" style="fill:#fff"></path>
  <g style="clip-path:url(#clip-path-38)">
    <path d="M2209.8905,1086.1581c-.8313,22.2327,20.6523,25.5333,23.3578.6624C2234.0829,1064.0792,2212.5126,1061.8261,2209.8905,1086.1581Z" style="fill:#010101"></path>
  </g>
  <path d="M2119.5412,1076.4607c-5.4022,41.3122,29.321,46.4344,37.052,6.7731C2162.2631,1040.0783,2126.879,1038.17,2119.5412,1076.4607Z" style="fill:#fff"></path>
  <g style="clip-path:url(#clip-path-39)">
    <path d="M2120.1782,1082.49c-.8067,20.1527,16.8013,23.0215,19.1565.5185C2140.1465,1062.4386,2122.4688,1060.4289,2120.1782,1082.49Z" style="fill:#010101"></path>
  </g>
  <path d="M2127.5644 1009.3083c43.4316-3.161 51.7279 18.9446 23.4166 22.4418C2124.3234 1035.0431 2101.3272 1011.2179 2127.5644 1009.3083ZM2225.7856 1025.4108c53.9029-10.873 68.0495 11.9545 32.8907 20.5964C2225.7468 1054.1013 2193.4581 1031.9316 2225.7856 1025.4108Z" style="fill:#010101"></path>
  <path d="M2159.1715,1133.67c8.1528-11.7153,7.7294-39.6795,16.4282-35.9585,9.5-1.5843.1128,25.485,5.4921,39.5174,5.46,14.2444-5.4713,20.071-13.42,18.5992-.0186-.0035-.0275-.03-.0456-.0336s-.0338.0189-.0523.0154C2159.7625,1154.3641,2151.1372,1145.2153,2159.1715,1133.67Z" style="fill:#fff"></path>
  <path d="M2199.7635,1156.8305c2.2076,12.66,20.2092,21.11,40.84,18.8875,21.3477-2.3,37.5429-15.0994,35.4783-28.6056-2.08-13.6077-21.7684-22.0637-43.2658-18.8967C2212.05,1131.275,2197.54,1144.0812,2199.7635,1156.8305Z" style="fill:#fff;opacity:.3"></path>
  <ellipse cx="2390.671" cy="1234.639" rx="120.34" ry="118.657" style="fill:#010101"></ellipse>
  <ellipse cx="2390.671" cy="1234.639" rx="120.34" ry="118.657" style="fill:none;stroke:#010101;stroke-linecap:round;stroke-linejoin:round;stroke-width:6px"></ellipse>
  <path d="M2323.5248,1068.4172c73.2731-29.6059,104.6507,107.0544-17.8715,73.481" style="fill:#fff;stroke:#010101;stroke-linecap:round;stroke-linejoin:round;stroke-width:6px"></path>
  <path d="M2155.2207,1184.225a2.3851,2.3851,0,0,0,.4123,3.59c15.5138,12.1777,33.76,6.066,36.9427-6.2219C2199.6409,1161.1489,2169.9232,1167.5019,2155.2207,1184.225Z" style="fill:#fff"></path>
  <g style="clip-path:url(#clip-path-40)">
    <path d="M2199.7127,1179.0533c16.4149,9.8005-13.0038,36.9671-29.2423,17.2673C2164.0386,1184.9291,2182.3214,1170.7734,2199.7127,1179.0533Z" style="fill:#fff"></path>
    <path d="M2156.4072,1179.8011c1.2421,7.5522,36.0729-2.2384,22.6611-11.9439l-20.8207,9.9605" style="fill:#fff"></path>
  </g>
  <path d="M2340.7867,1099.4686c22.3394-19.5611,25.02,24.0526,0,17.0039" style="fill:none;stroke:#010101;stroke-linecap:round;stroke-linejoin:round;stroke-width:6px"></path>
  <path d="M2353.0126,1232.0324c-28.5994,0-51.8571-22.9682-51.8571-51.2012,0-28.2137,23.2577-51.1819,51.8571-51.1819a4.9369,4.9369,0,1,1,0,9.8738c-23.1418,0-41.9833,18.5327-41.9833,41.3081,0,22.7947,18.8415,41.3274,41.9833,41.3274s41.983-18.5327,41.983-41.3274a41.4412,41.4412,0,0,0-24.2217-37.4318,4.9445,4.9445,0,1,1,4.1269-8.9867,51.3876,51.3876,0,0,1,29.9686,46.4185C2404.8694,1209.0642,2381.6119,1232.0324,2353.0126,1232.0324Z" style="fill:#010101"></path>
  <path d="M2084.467,2581.3266l-101.8327-640.92a36.1233,36.1233,0,0,0-33.4327-30.3856L909.9758,1845.34a14.6811,14.6811,0,0,0-9.8935,2.9959l-14.8869,8.6443,4.5206,9.6393,5.2728-1.6184,157.4105,637.9261a51.7257,51.7257,0,0,0,46.5907,39.2042l950.0715,66.7809-7.49,3.5745,11.0626,5.1094,18.4292-10.4582.0622-.1552A24.3726,24.3726,0,0,0,2084.467,2581.3266Z" style="stroke:#010101;stroke-linecap:round;stroke-linejoin:round;stroke-width:6px;fill:#010101"></path>
  <path d="M878.6967,1873.08l157.7353,639.2429a51.7227,51.7227,0,0,0,46.59,39.2044l959.59,67.45a24.4741,24.4741,0,0,0,25.887-28.2543l-101.8328-640.92a36.1237,36.1237,0,0,0-33.4322-30.3855L894.0079,1854.7351A14.8221,14.8221,0,0,0,878.6967,1873.08Z" style="fill:#fff"></path>
  <g style="clip-path:url(#clip-path-41)">
    <path d="M881.412,1942.064c238.2726,870.816,1235.055,764.3036,1235.055,764.3036L777.522,2855.65l-99.7974-660.5639,128.311-253.0521" style="fill:#010101"></path>
    <polygon points="1445.223 2108.209 1665.153 2396.671 1326.924 2369.578 1445.223 2108.209" style="fill:#fff;stroke:#010101;stroke-linecap:round;stroke-linejoin:round;stroke-width:6px"></polygon>
    <ellipse cx="1687.27" cy="2134.826" rx="105.064" ry="137.702" style="fill:#fff;stroke:#010101;stroke-linecap:round;stroke-linejoin:round;stroke-width:6px" transform="rotate(-53.19 1687.268 2134.826)"></ellipse>
    <polygon points="1157.576 2179.238 1336.186 2179.238 1289.262 2007.845 1110.651 2007.845 1157.576 2179.238" style="fill:#fff;stroke:#010101;stroke-linecap:round;stroke-linejoin:round;stroke-width:6px"></polygon>
  </g>
  <path d="M878.6967,1873.08l157.7353,639.2429a51.7227,51.7227,0,0,0,46.59,39.2044l959.59,67.45a24.4741,24.4741,0,0,0,25.887-28.2543l-101.8328-640.92a36.1237,36.1237,0,0,0-33.4322-30.3855L894.0079,1854.7351A14.8221,14.8221,0,0,0,878.6967,1873.08Z" style="fill:none;stroke:#010101;stroke-linecap:round;stroke-linejoin:round;stroke-width:6px"></path>
  <path d="M1750.97,2476.0494a154.8779,154.8779,0,0,0,87.5524,14.9537" style="fill:none;stroke-linecap:round;stroke-linejoin:round;stroke-width:6px;stroke:#fff"></path>
  <g style="clip-path:url(#clip-path-42)">
    <circle cx="3062.214" cy="1267.04" r="208.655" style="fill:#fff;stroke:#010101;stroke-linecap:round;stroke-linejoin:round;stroke-width:6px"></circle>
    <path d="M3117.2617,1361.0709c-8.4336,147.5964-221.5784,135.6124-225.4378-.0038C2900.257,1213.4744,3113.4018,1225.4584,3117.2617,1361.0709Z" style="stroke:#010101;stroke-linecap:round;stroke-linejoin:round;stroke-width:6px;fill:#010101"></path>
    <path d="M3271.312,1781.0518c-.7622,4.3654,72.7938-11.2382,42.4237,11.5953C3377.1168,1794.8344,3244.4215,1833.2452,3271.312,1781.0518Z" style="fill:#fff;stroke:#010101;stroke-linecap:round;stroke-linejoin:round;stroke-width:6px"></path>
    <path d="M3304.3713,1671.7573c-.2449,2.4821-94.7991,81.789-88.144,85.8692,13.09,29.6834,11.9582,71.3083,43.1763,55.77,13.5455,20.5007,142.8813,16.4975,20.4163-10.5807-.0019-.52-.0019-5.6094.3656-19.0656,1.4571-17.694-1.0263-8.3515,15.3207-22.401C3362.0285,1725.867,3310.7723,1705.9617,3304.3713,1671.7573Z" style="fill:#fff"></path>
    <g style="clip-path:url(#clip-path-43)">
      <path d="M3240.3646,1710.5388c9.18,36.8335,47.3472,84.7686,48.5547,69.723,44.0639-65.7132-1.9318-60.3549-29.2211-86.5861" style="fill:#fff"></path>
    </g>
    <path d="M3304.3713,1671.7573c-.2449,2.4821-94.7991,81.789-88.144,85.8692,13.09,29.6834,11.9582,71.3083,43.1763,55.77,13.5455,20.5007,142.8813,16.4975,20.4163-10.5807-.0019-.52-.0019-5.6094.3656-19.0656,1.4571-17.694-1.0263-8.3515,15.3207-22.401C3362.0285,1725.867,3310.7723,1705.9617,3304.3713,1671.7573Z" style="fill:none;stroke:#010101;stroke-linecap:round;stroke-linejoin:round;stroke-width:6px"></path>
    <path d="M3496.5977,2894.6691c3.4415,4.8032,64.6866,176.1162,64.6866,176.1162l-111.4424-10.4069-88.5854-242.56Z" style="fill:#fff"></path>
    <g style="clip-path:url(#clip-path-44)">
      <path d="M3512.3374,2921.6369c9.3281,64.9009-134.5023-35.4581-76.9929,115.5662-77.806-38.4954-44.2028-117.951-47.538-149.02l92.9717,10.6075" style="fill:#fff"></path>
    </g>
    <path d="M3496.5977,2894.6691c3.4415,4.8032,64.6866,176.1162,64.6866,176.1162l-111.4424-10.4069-88.5854-242.56Z" style="fill:none;stroke:#010101;stroke-linecap:round;stroke-linejoin:round;stroke-width:6px"></path>
    <path d="M3483.707,3120.418h274.1414s48.9673-41.8557-89.6856-40.0264c-102.991,1.3588-125.7782-77.8372-125.7782-77.8372s-25.6606,31.7208-108.6274,29.8054C3445.3883,3060.8572,3439.7831,3113.425,3483.707,3120.418Z" style="fill:#fff;stroke:#010101;stroke-linecap:round;stroke-linejoin:round;stroke-width:6px"></path>
    <path d="M3353.1868,2923.68c131.34,17.1473,247.4245,31.5162,211.13-52.8989-112.5-404.2482-254.0569-1005.2239-383.0468-1170.1865.4287-.1929-73.7353,16.7293-103.36,23.35-16.575,3.74-6.9571-.8321-9.338,15.2426,1.4006,112.3238-4.2874,228.723,1.0693,230.4369C3094.343,2052.74,3343.5738,2924.6342,3353.1868,2923.68Z" style="fill:#010101"></path>
    <g style="clip-path:url(#clip-path-45)">
      <path d="M3231.1754 2420.1377c7.9717 55.1921 85.872 17.6725 50.6827 61.18-16.3011 17.084-19.4174 10.3883-15.69 32.83 5.8384 23.3257 5.5732 30.7988-14.7389 28.2879-43.8413-37.6664-88.4877 44.5873-72.2841-38.6734-33.5319-47.1251-44.64-34.82 19.3058-56.7944C3208.7612 2434.8089 3207.2883 2405.348 3231.1754 2420.1377ZM3488.1981 2642.0778c7.9717 55.192 85.872 17.6724 50.6827 61.18-16.3011 17.084-19.4175 10.3882-15.69 32.83 5.8385 23.3257 5.5733 30.7989-14.7389 28.2879-43.8413-37.6664-88.4876 44.5874-72.2841-38.6734-33.5318-47.1251-44.64-34.82 19.3059-56.7943C3465.7839 2656.749 3464.3109 2627.288 3488.1981 2642.0778ZM3244.78 2034.0874c8.1982 49.8529 90.5955 15.6965 32.5759 67.3053-3.5393 3.5933-2.4563 12.1962 1.2892 30.4361 3.36 9.3149-2.2088 17.0653-16.92 11.7659-51.9629-35.3643-68.6233 48.5625-66.5373-42.2139-43.7838-35.5355-15.0055-27.2195 20.1091-43.1237C3224.302 2048.0989 3223.01 2020.7892 3244.78 2034.0874Z" style="stroke:#010101;stroke-linecap:round;stroke-linejoin:round;stroke-width:6px;fill:#010101"></path>
      <path d="M3082.1815,1915.2863s-25.3818,77.4315,22.7468,5.9107,85.7085,378.7437,111.333,554.2012c14.1636,96.9817-148.4966-364.141-148.4966-364.141l14.4168-195.9709" style="fill:#010101"></path>
    </g>
    <path d="M3353.1868,2923.68c131.34,17.1473,247.4245,31.5162,211.13-52.8989-112.5-404.2482-254.0569-1005.2239-383.0468-1170.1865.4287-.1929-73.7353,16.7293-103.36,23.35-16.575,3.74-6.9571-.8321-9.338,15.2426,1.4006,112.3238-4.2874,228.723,1.0693,230.4369C3094.343,2052.74,3343.5738,2924.6342,3353.1868,2923.68Z" style="fill:none;stroke:#010101;stroke-linecap:round;stroke-linejoin:round;stroke-width:6px"></path>
    <path d="M3245.524,1720.0086c169.7269,221.0547,215.42,81.6919,256.2182-48.2513,34.9724-111.3889-195.0449-255.4035-243.6977-290.9861-80.5657-58.9222-150.2923,80.1008-97.8444,148.5782,3.4817,9.3552,173.4908,98.5754,177.9621,104.482Z" style="fill:#010101"></path>
    <g style="clip-path:url(#clip-path-46)">
      <path d="M3264.5286,1470.0413c54.6446-56.7043,5.2738,29.9523,21.4,81.5168,9.6757,30.9387,22.5006,60.6041,38.3165,70.8981,42.1757,27.45-147.1323-20.9405-147.1323-20.9405l55.7616-129.9241" style="fill:#010101"></path>
    </g>
    <path d="M3245.524,1720.0086c169.7269,221.0547,215.42,81.6919,256.2182-48.2513,34.9724-111.3889-195.0449-255.4035-243.6977-290.9861-80.5657-58.9222-150.2923,80.1008-97.8444,148.5782,3.4817,9.3552,173.4908,98.5754,177.9621,104.482Z" style="fill:none;stroke:#010101;stroke-linecap:round;stroke-linejoin:round;stroke-width:6px"></path>
    <path d="M3092.86,2894.8069c27.2724,225.33-.5086,172.0665,128.8685,166.0065l-31.6083-242.995Z" style="fill:#fff"></path>
    <g style="clip-path:url(#clip-path-47)">
      <path d="M3062.9507,2971.4628c208.5678,13.3615,164.7681-95.9987,29.8749-33.68" style="fill:#fff"></path>
    </g>
    <path d="M3092.86,2894.8069c27.2724,225.33-.5086,172.0665,128.8685,166.0065l-31.6083-242.995Z" style="fill:none;stroke:#010101;stroke-linecap:round;stroke-linejoin:round;stroke-width:6px"></path>
    <path d="M3217.6146,3120.9607h-319.703s-24.1466-41.9308,115.413-40.0982c103.6644,1.3613,87.2083-77.9767,87.2083-77.9767-6.2777,2.4582,64.42,30.6007,123.8127,31.6317C3227.7771,3071.4516,3258.7784,3109.4967,3217.6146,3120.9607Z" style="fill:#fff;stroke:#010101;stroke-linecap:round;stroke-linejoin:round;stroke-width:6px"></path>
    <path d="M3083.8659,1709.3726l-127.0382-8.7739L2909.097,1778.57c-45.894,74.9709-62.1178,165.3873-45.2956,252.436l134.623,905.7762c-14.6872,30.2816,207.7549,27.1694,248.74-20.9236s-142.2356-994.6617-142.2356-994.6617" style="fill:#010101"></path>
    <g style="clip-path:url(#clip-path-48)">
      <path d="M2743.7588 1903.3087c243.3755 93.563 116.57-196.4422 309.337-226.0542s-214.2117-58.7239-214.2117-58.7239l-106.498 160.7528M3152.8217 2365.1864c8.1479 56.4116 87.77 18.063 51.8027 62.5321-16.6613 17.4615-19.8465 10.6178-16.0366 33.555 5.9675 23.8412 5.6965 31.48-15.0645 28.913-44.81-38.4987-90.443 45.5726-73.8814-39.5279-34.2729-48.1665-45.6265-35.5894 19.7324-58.0494C3129.9122 2380.1818 3128.4067 2350.07 3152.8217 2365.1864ZM3000.6223 2691.2888c-.9975 32.4727 68.5658 14.2644 27.42 49.386-7.7087 5.7679-4.1989 7.0626-1.4352 25.6177 2.579 7.1449-1.6941 13.0921-12.9828 9.0256-39.8732-27.1364-52.6574 37.264-51.0567-32.3924-33.597-27.2678-11.5143-20.8866 15.43-33.09C2983.7615 2704.2385 2984.5679 2680.04 3000.6223 2691.2888ZM3197.79 2656.6051c12.2224 66.4808 118.1594 20.2353 44.057 85.2287-10.479 4.7076-3.1913 20.6738.2391 43.99 5.836 9.4434-9.7207 18.727-19.7388 13.7157-47.2991-44.9188-105.9541 50.5827-85.619-42.9782-69.1607-105.913 1.2-15.3043 34.8816-91.853C3176.9577 2652.6 3180.7819 2645.671 3197.79 2656.6051ZM2905.23 2079.9961c12.2224 66.4809 118.1594 20.2354 44.057 85.2288-10.4791 4.7076-3.1913 20.6738.2391 43.9895 5.8359 9.4434-9.7207 18.727-19.7388 13.7157-47.2991-44.9188-105.9541 50.5827-85.619-42.9782-69.1607-105.913 1.2-15.3043 34.8816-91.8531C2884.3981 2075.991 2888.2223 2069.0621 2905.23 2079.9961ZM3029.4628 1878.6452c7.9718 55.192 85.8721 17.6724 50.6827 61.18-16.3011 17.084-19.4174 10.3882-15.69 32.83 5.8385 23.3258 5.5733 30.7989-14.7389 28.2879-43.8413-37.6663-88.4876 44.5874-72.2841-38.6733-33.5319-47.1252-44.64-34.82 19.3058-56.7944C3007.0486 1893.3164 3005.5757 1863.8555 3029.4628 1878.6452Z" style="stroke:#010101;stroke-linecap:round;stroke-linejoin:round;stroke-width:6px;fill:#010101"></path>
    </g>
    <path d="M3083.8659,1709.3726l-127.0382-8.7739L2909.097,1778.57c-45.894,74.9709-62.1178,165.3873-45.2956,252.436l134.623,905.7762c-14.6872,30.2816,207.7549,27.1694,248.74-20.9236s-142.2356-994.6617-142.2356-994.6617" style="fill:none;stroke:#010101;stroke-linecap:round;stroke-linejoin:round;stroke-width:6px"></path>
    <path d="M2904.762,1763.5141s222.8225,24.354,311.261-8.7043c8.2551-58.6081-200.2394-22.2766-280.93-34.0682C2919.0116,1712.5417,2916.05,1741.5529,2904.762,1763.5141Z" style="fill:#fff;stroke:#010101;stroke-linecap:round;stroke-linejoin:round;stroke-width:6px"></path>
    <path d="M3232.9766,1369.1271s-209.0626-53.41-353.5835-8.4359c0,0,10.11,255.9863,43.652,359.8958,146.2621,36.6452,280.5087,3.8978,280.5087,3.8978s70.372-144.3889,59.9149-264.6165" style="fill:#010101"></path>
    <g style="clip-path:url(#clip-path-49)">
      <path d="M3152.7783,1362.52c11.4633,98.023-153.782,78.2067-168.0249-.0065C2973.2876,1264.4972,3138.533,1284.3135,3152.7783,1362.52Z" style="fill:#fff;stroke:#010101;stroke-linecap:round;stroke-linejoin:round;stroke-width:6px"></path>
      <path d="M2946.7271,1482.3668c43.6177,9.3767-12.8463,79.8925-10.5535,106.2335,4.4524,51.1529,26.4274,69.7453,40.348,65.359h0l26.1005,74.8116C2645.6754,1775.9274,2879.0789,1620.23,2946.7271,1482.3668Z" style="fill:#010101"></path>
      <path d="M3077.8353,1519.3073c-1.8714,70.9063-112.905,74.0961-117.5374-.006C2962.1694,1448.401,3073.203,1445.2111,3077.8353,1519.3073Z" style="fill:#fff;stroke:#010101;stroke-linecap:round;stroke-linejoin:round;stroke-width:6px"></path>
      <rect width="85.487" height="81.779" x="3101.261" y="1468.511" style="fill:#fff;stroke:#010101;stroke-linecap:round;stroke-linejoin:round;stroke-width:6px"></rect>
    </g>
    <path d="M3232.9766,1369.1271s-209.0626-53.41-353.5835-8.4359c0,0,10.11,255.9863,43.652,359.8958,146.2621,36.6452,280.5087,3.8978,280.5087,3.8978s70.372-144.3889,59.9149-264.6165" style="fill:none;stroke:#010101;stroke-linecap:round;stroke-linejoin:round;stroke-width:6px"></path>
    <path d="M3138.5628,1749.2005H3012.7567c-8.738,0-14.4176-6.963-12.6856-15.5523l38.2883-189.879c1.732-8.5892,10.22-15.5522,18.9578-15.5522h125.806c8.7381,0,14.4177,6.963,12.6857,15.5522l-38.2883,189.879C3155.7886,1742.2375,3147.3009,1749.2005,3138.5628,1749.2005Z" style="stroke:#010101;stroke-linecap:round;stroke-linejoin:round;stroke-width:6px;fill:#010101"></path>
    <ellipse cx="3105.61" cy="1636.836" rx="22.176" ry="18.15" style="fill:#fff" transform="rotate(-39.691 3105.609 1636.836)"></ellipse>
    <path d="M2941.0377,1669.5057c15.8934-2.4417,63.6471-35.7651,84.8218-50.9751-37.2144,100.196,163.9659-48.2012,82.3349,38.2048,46.5815,60.8186-148.1344,82.475-153.227,87.5877Z" style="fill:#fff"></path>
    <g style="clip-path:url(#clip-path-50)">
      <path d="M2957.7534,1651.5179c35.2724,55.2018,41.2069,82.2006,66.0848,79.3382-47.1806,44.6126-96.3352,14.5788-88.2615-30.2574" style="fill:#fff"></path>
    </g>
    <path d="M2941.0377,1669.5057c15.8934-2.4417,63.6471-35.7651,84.8218-50.9751-37.2144,100.196,163.9659-48.2012,82.3349,38.2048,46.5815,60.8186-148.1344,82.475-153.227,87.5877Z" style="fill:none;stroke:#010101;stroke-linecap:round;stroke-linejoin:round;stroke-width:6px"></path>
    <path d="M2898.6462,1355.2426c-93.56-.4527-219.3,299.6892-241.7851,416.9211l.0946-.0149c-8.9168,135.8505,327.5163,161.647,331.5154,81.5357,14.0844-282.1451-53.5183-179.3714-126.081-173.3743l84.3375-197.9432" style="stroke:#010101;stroke-linecap:round;stroke-linejoin:round;stroke-width:6px;fill:#010101"></path>
    <line x1="2793.817" x2="2922.681" y1="1695.937" y2="1667.541" style="stroke:#010101;stroke-linecap:round;stroke-linejoin:round;stroke-width:6px;fill:#010101"></line>
    <path d="M3340.2886 1636.7348a19.4036 19.4036 0 0 1 14.8843 4.1353M3011.5567 2302.6141a95.2911 95.2911 0 0 0 45.4691 1.7226M3264.2691 2282.27a248.0459 248.0459 0 0 0 61.1148-14.8721" style="fill:none;stroke-linecap:round;stroke-linejoin:round;stroke-width:6px;stroke:#fff"></path>
    <path d="M3046.4035,1384.4555a19.3849,19.3849,0,0,0,15.81,10.686" style="fill:none;stroke:#010101;stroke-linecap:round;stroke-linejoin:round;stroke-width:6px"></path>
    <path d="m2852.7783 1680.05-47.576 17.8683M2875.6723 1413.337c11.2852.1587 21.2877 10.45 20.6324 21.2292" style="fill:none;stroke-linecap:round;stroke-linejoin:round;stroke-width:6px;stroke:#fff"></path>
    <path d="M3162.7136,1187.363c-2.66-80.5608-123.7067-87.47-141.7963-13.2136-31.2616,6.9834-77.4824,19.064-80.5766,84.5931-5.3441,113.1748,168.8708,85.4022,182.66-2.2483C3129.2928,1233.49,3165.7919,1221.9214,3162.7136,1187.363Z" style="fill:#010101"></path>
    <g style="clip-path:url(#clip-path-51)">
      <path d="m3016.6807 1172.6344 4.2366 1.515s23.5337-3.0815 30.6416 2.8927c0 0 13.6732-13.0594-34.8782-9.5987M3002.8567 1255.9055c-12.9147-14.0578-1.8529 59.1932 33.851 49.6763S3046.117 1284 3046.117 1284" style="fill:#010101"></path>
    </g>
    <path d="M3162.7136,1187.363c-2.66-80.5608-123.7067-87.47-141.7963-13.2136-31.2616,6.9834-77.4824,19.064-80.5766,84.5931-5.3441,113.1748,168.8708,85.4022,182.66-2.2483C3129.2928,1233.49,3165.7919,1221.9214,3162.7136,1187.363Z" style="fill:none;stroke:#010101;stroke-linecap:round;stroke-linejoin:round;stroke-width:6px"></path>
    <path d="M3113.9549,1368.0585l4.95-95.6806c-117.7714-10.0442-68.5368,21.5405-86.3528,84.9258" style="fill:#fff"></path>
    <g style="clip-path:url(#clip-path-52)">
      <path d="M3138.4779,1358.7388c-48.0639.1812-57.4621-40.5586-84.1861-66.8893C3132.1171,1260.01,3120.5924,1330.4332,3138.4779,1358.7388Z" style="fill:#fff"></path>
    </g>
    <path d="M3113.9549,1368.0585l4.95-95.6806c-117.7714-10.0442-68.5368,21.5405-86.3528,84.9258" style="fill:none;stroke:#010101;stroke-linecap:round;stroke-linejoin:round;stroke-width:6px"></path>
    <path d="M3061.3387,1307.07c87.3858,49.0848,104.1939-44.682,79.8619-92.481-22.4287,9.5645-44.0994-15.6606-44.0994-15.6606-8.8929,19.01-42.9581,15.32-42.9581,15.32,7.8421,7.6738-23.04,39.637-34.6624,62.4891" style="fill:#fff"></path>
    <g style="clip-path:url(#clip-path-53)">
      <path d="M3163.9092,1263.2843c.0259,4.4987-6.1611,8.6376-14.0556,9.2925-8.1686.6778-15.1119-2.6038-15.2486-7.3832-.1377-4.8153,6.6821-9.0721,14.9655-9.4624C3157.5722,1255.3541,3163.8832,1258.7539,3163.9092,1263.2843Z" style="fill:#fff;opacity:.3"></path>
      <path d="M3030.5568,1252.229c19.7434,1.4427,30.2015-28.55,29.3051-34.6059,0,0,29.5815-1.442,36.1552-9.8052,0,0,29.88,13.5421,49.0037,6.771s-16.7329-24.6512-16.7329-24.6512l-54.3822-6.6329-51.0137,18.1685" style="fill:#fff"></path>
    </g>
    <path d="M3061.3387,1307.07c87.3858,49.0848,104.1939-44.682,79.8619-92.481-22.4287,9.5645-44.0994-15.6606-44.0994-15.6606-8.8929,19.01-42.9581,15.32-42.9581,15.32,7.8421,7.6738-23.04,39.637-34.6624,62.4891" style="fill:none;stroke:#010101;stroke-linecap:round;stroke-linejoin:round;stroke-width:6px"></path>
    <path d="M3044.2707,1253.4858c-43.4658-37.7983-68.1263,37.0907-2.3867,41.0705" style="fill:#fff;stroke:#010101;stroke-linecap:round;stroke-linejoin:round;stroke-width:6px"></path>
    <path d="M3102.0281,1245.6143c4.0273,16.6106-12.87,20.4369-18.0108,4.5468C3079.7765,1232.7311,3097.1513,1230.323,3102.0281,1245.6143Z" style="fill:#fff"></path>
    <g style="clip-path:url(#clip-path-54)">
      <path d="M3101.2783,1245.9261c1.1146,8.1853-7.4481,10.1713-9.4123,1.078C3090.7321,1238.631,3099.3667,1237.0289,3101.2783,1245.9261Z" style="fill:#010101"></path>
    </g>
    <path d="M3137.4357,1239.12c3.63,15.0722-10.2177,18.2036-14.73,3.8245C3118.9034,1227.2,3133.13,1225.2329,3137.4357,1239.12Z" style="fill:#fff"></path>
    <g style="clip-path:url(#clip-path-55)">
      <path d="M3137.39,1241.37c1.0319,7.4176-5.9805,9.1058-7.72.875C3128.6209,1234.6735,3135.6915,1233.3,3137.39,1241.37Z" style="fill:#010101"></path>
    </g>
    <path d="M3131.8422 1214.593c-17.6552.3814-20.2321 8.8454-8.6731 9.1276C3134.053 1223.9864 3142.5078 1214.3626 3131.8422 1214.593ZM3092.7293 1224.0469c-22.1554-2.0945-27.07 6.845-12.5649 8.7839C3093.75 1234.6467 3106.0166 1225.3031 3092.7293 1224.0469Z" style="fill:#010101"></path>
    <path d="M3123.431,1261.6724c-3.7038-4.0379-4.5124-14.3858-7.896-12.7-3.893-.2465.8472,9.4207-.8342,14.7976-1.7068,5.4581,2.9133,7.221,6.0728,6.3936.0074-.0019.01-.0118.0173-.014s.0143.0058.0216.0038C3123.9172,1269.34,3127.0809,1265.6517,3123.431,1261.6724Z" style="fill:#fff"></path>
    <path d="M3103.5989,1272.46c-.4482,4.7566-7.4241,8.5212-15.836,8.4359-8.7041-.0883-15.6946-4.24-15.3338-9.3041.3636-5.1022,8.0206-8.9291,16.8155-8.5259C3097.7405,1263.4559,3104.05,1267.67,3103.5989,1272.46Z" style="fill:#fff;opacity:.3"></path>
    <path d="M3112.8353 1276.1954a17.0207 17.0207 0 0 0 2.8 3.3605M3028.6409 1264.0635c-9.7446-4.0675-5.7352 10.63 1.9159 5.618" style="fill:none;stroke:#010101;stroke-linecap:round;stroke-linejoin:round;stroke-width:6px"></path>
    <path d="M3132.3182,1168.6958c-15.7021,5.1173-27.2968-10.4312-25.5855-20.59C3112.0654,1157.4346,3137.8518,1163.4012,3132.3182,1168.6958Z" style="fill:#010101"></path>
    <path d="M3393.9221,2519.5664a45.0533,45.0533,0,0,1-16.912,29.0589" style="fill:none;stroke-linecap:round;stroke-linejoin:round;stroke-width:6px;stroke:#fff"></path>
  </g>
</svg>
